<svg width="103" height="27" viewBox="0 0 103 27" fill="none" xmlns="http://www.w3.org/2000/svg">
<g filter="url(#filter0_f_3_6)">
<path d="M1 1.36H11.8V4.96H4.96V11.62H10.396V15.22H4.96V21.832L11.8 20.872V24.5L1 26.56V1.36Z" fill="#E50914"/>
<path d="M14.0781 1.36H19.0461L22.8981 16.444H22.9701V1.36H26.4981V22L22.4301 22.5L17.6781 8.164H17.6061V23.5L14.0781 24V1.36Z" fill="#E50914"/>
<path d="M29.4414 1.36H35.4894C37.4574 1.36 38.9334 1.888 39.9174 2.944C40.9014 4 41.3934 5.548 41.3934 7.588V16.5C41.3934 18.54 39.9174 20 39.9174 20C39.9174 20 39 20.5 35.4894 20.872C31.9788 21.244 29.4414 21.5 29.4414 21.5V1.36ZM35.4174 17C35.4174 17 36.4536 16.9352 36.8934 16.5C37.4342 15.9648 37.4334 15.864 37.4334 15C37.4334 14.136 37.4334 7.408 37.4334 7.408C37.4334 6.544 37.2534 5.92 36.8934 5.536C36.5574 5.152 36.0654 4.96 35.4174 4.96H33.4014V17H35.4174Z" fill="#E50914"/>
<path d="M49.6824 20C47.5 20 46.2984 19.56 45.2904 18.48C44.2824 17.376 43.7784 15.804 43.7784 13.764V7.336C43.7784 5.296 44.2824 3.736 45.2904 2.656C46.2984 1.552 47.7624 1 49.6824 1C51.6024 1 53.0664 1.552 54.0744 2.656C55.0824 3.736 55.5864 5.296 55.5864 7.336V8H51.8424V7.084C51.8424 5.428 51.1584 4.6 49.7904 4.6C48.4224 4.6 47.7384 5.428 47.7384 7.084V14.052C47.7384 15.684 48.4224 16.5 49.7904 16.5C51.1584 16.5 51.8424 14.684 51.8424 13.052V12.5H49.8624V10H55.5864V12.764C55.5864 14.804 55.0824 17.376 54.0744 18.48C53.0664 19.56 51.5 20 49.6824 20Z" fill="#E50914"/>
<path d="M61.1889 1.36H66.5529L70.5 21.25C70.5 21.25 70.5128 21.1642 68.6769 21C67 20.85 67 20.85 67 20.85L65.9769 17.5H61.4769L61 20.2569L57.0849 20L61.1889 1.36ZM65.5 15L63.7449 5.752H63.6729L61.9449 15H65.5Z" fill="#E50914"/>
<path d="M72.5781 1.36H78.2301L80.5 18.5H80.8221L83.3421 1.36H88.9941V24L87.1221 23.6506L85.2501 23.3013V7.48H85.1781L82.2981 23L78.9861 22.5L76.1061 7.48H76.0341V22L72.5781 21.5V11.43V1.36Z" fill="#E50914"/>
<path d="M91.9492 1.36H102.749V4.96H95.9092V11.62H101.345V15.22H95.9092V21.5L102.749 22.96V26.56L91.9492 24.5V12.93V1.36Z" fill="#E50914"/>
<path d="M49.6824 20C47.5 20 46.2984 19.56 45.2904 18.48C44.2824 17.376 43.7784 15.804 43.7784 13.764V7.336C43.7784 5.296 44.2824 3.736 45.2904 2.656C46.2984 1.552 47.7624 1 49.6824 1C51.6024 1 53.0664 1.552 54.0744 2.656C55.0824 3.736 55.5864 5.296 55.5864 7.336V8H51.8424V7.084C51.8424 5.428 51.1584 4.6 49.7904 4.6C48.4224 4.6 47.7384 5.428 47.7384 7.084V14.052C47.7384 15.684 48.4224 16.5 49.7904 16.5C51.1584 16.5 51.8424 14.684 51.8424 13.052V12.5H49.8624V10H55.5864V12.764C55.5864 14.804 55.0824 17.376 54.0744 18.48C53.0664 19.56 51.5 20 49.6824 20Z" fill="#E50914"/>
</g>
<defs>
<filter id="filter0_f_3_6" x="0.85" y="0.85" width="102.049" height="25.86" filterUnits="userSpaceOnUse" color-interpolation-filters="sRGB">
<feFlood flood-opacity="0" result="BackgroundImageFix"/>
<feBlend mode="normal" in="SourceGraphic" in2="BackgroundImageFix" result="shape"/>
<feGaussianBlur stdDeviation="0.075" result="effect1_foregroundBlur_3_6"/>
</filter>
</defs>
</svg>
