<svg width="1080" height="600" viewBox="0 0 1080 600" fill="none" xmlns="http://www.w3.org/2000/svg">
<rect width="1080" height="600" fill="white"/>
<path d="M875.245 79.9179C867.555 75.3273 857.022 72.7223 845.967 72.6667C845.857 72.6667 845.761 72.6667 845.665 72.6667C834.734 72.6667 824.243 75.1765 816.511 79.6558L812.364 82.0543C796.489 91.2512 796.283 106.111 811.911 115.459C884.336 158.751 924.242 215.767 924.242 276C924.242 336.241 884.349 393.257 811.911 436.541C796.242 445.897 796.476 460.797 812.419 469.986L816.58 472.384C824.298 476.84 834.762 479.333 845.665 479.333C845.789 479.333 845.912 479.333 846.022 479.333C857.049 479.278 867.568 476.665 875.245 472.09C963.75 419.251 1012.5 349.615 1012.5 276C1012.5 202.393 963.75 132.757 875.245 79.9179Z" fill="#EEEEEE"/>
<path d="M800.308 171.079C792.604 166.481 782.044 163.876 770.976 163.828C770.893 163.828 770.797 163.828 770.715 163.828C759.743 163.828 749.224 166.362 741.492 170.865L739.474 172.04C723.668 181.245 723.489 196.073 739.089 205.405C770.825 224.363 788.292 249.341 788.292 275.724C788.292 302.116 770.825 327.094 739.103 346.044C723.489 355.376 723.654 370.203 739.474 379.408L741.492 380.584C749.21 385.087 759.743 387.62 770.715 387.62C770.797 387.62 770.893 387.62 770.976 387.62C782.044 387.581 792.604 384.968 800.308 380.377C847.548 352.175 873.571 315.014 873.571 275.724C873.571 236.443 847.561 199.282 800.308 171.079Z" fill="#EEEEEE"/>
<path d="M144.063 276C144.063 215.775 184.087 158.759 256.765 115.459C272.471 106.111 272.251 91.2274 256.269 82.0305L252.094 79.632C244.337 75.1685 233.839 72.6667 222.885 72.6667C222.775 72.6667 222.651 72.6667 222.541 72.6667C211.464 72.7223 200.896 75.3273 193.194 79.9179C104.397 132.757 55.5 202.393 55.5 276C55.5 349.615 104.397 419.251 193.208 472.082C200.924 476.673 211.491 479.278 222.569 479.333C222.679 479.333 222.789 479.333 222.899 479.333C233.852 479.333 244.379 476.832 252.122 472.352L256.296 469.946C272.251 460.749 272.471 445.881 256.779 436.533C184.087 393.249 144.063 336.233 144.063 276Z" fill="#EEEEEE"/>
<path d="M328.385 171.985L326.346 170.809C318.603 166.338 308.076 163.828 297.123 163.828C297.013 163.828 296.903 163.828 296.792 163.828C285.715 163.876 275.148 166.489 267.432 171.079C220.051 199.274 193.956 236.435 193.956 275.724C193.956 315.014 220.051 352.183 267.446 380.377C275.148 384.96 285.729 387.565 296.806 387.62C296.916 387.62 297.027 387.62 297.123 387.62C308.076 387.62 318.603 385.119 326.346 380.639L328.385 379.464C344.339 370.267 344.546 355.399 328.867 346.044C297.04 327.086 279.501 302.124 279.501 275.724C279.501 249.341 297.027 224.363 328.867 205.405C344.56 196.049 344.353 181.174 328.385 171.985Z" fill="#EEEEEE"/>
<rect width="1080" height="600" fill="url(#paint0_linear_313_16)"/>
<path d="M243.879 498.333V473.133H256.515C257.739 473.133 258.867 473.337 259.899 473.745C260.955 474.129 261.855 474.669 262.599 475.365C263.343 476.061 263.919 476.901 264.327 477.885C264.759 478.845 264.975 479.901 264.975 481.053C264.975 482.181 264.759 483.225 264.327 484.185C263.919 485.121 263.331 485.937 262.563 486.633C261.819 487.329 260.931 487.869 259.899 488.253C258.867 488.637 257.739 488.829 256.515 488.829H249.099V498.333H243.879ZM255.939 477.633H249.099V484.509H255.939C257.067 484.509 257.967 484.197 258.639 483.573C259.335 482.949 259.683 482.121 259.683 481.089C259.683 480.057 259.335 479.229 258.639 478.605C257.967 477.957 257.067 477.633 255.939 477.633ZM272.991 472.053V498.333H268.059V473.133L272.991 472.053ZM282.788 498.657C280.772 498.657 279.128 498.129 277.856 497.073C276.584 495.993 275.948 494.601 275.948 492.897C275.948 491.121 276.632 489.729 278 488.721C279.368 487.713 281.252 487.209 283.652 487.209C284.42 487.209 285.188 487.269 285.956 487.389C286.724 487.509 287.48 487.689 288.224 487.929V486.597C288.224 485.517 287.888 484.701 287.216 484.149C286.544 483.597 285.56 483.321 284.264 483.321C283.472 483.321 282.608 483.453 281.672 483.717C280.76 483.957 279.716 484.341 278.54 484.869L276.74 481.233C278.204 480.561 279.62 480.057 280.988 479.721C282.38 479.385 283.748 479.217 285.092 479.217C287.612 479.217 289.568 479.829 290.96 481.053C292.376 482.253 293.084 483.957 293.084 486.165V498.333H288.224V497.037C287.432 497.589 286.592 497.997 285.704 498.261C284.84 498.525 283.868 498.657 282.788 498.657ZM280.664 492.789C280.664 493.509 280.976 494.085 281.6 494.517C282.224 494.925 283.052 495.129 284.084 495.129C284.9 495.129 285.644 495.033 286.316 494.841C287.012 494.625 287.648 494.325 288.224 493.941V491.133C287.624 490.893 286.988 490.725 286.316 490.629C285.668 490.509 284.984 490.449 284.264 490.449C283.136 490.449 282.248 490.665 281.6 491.097C280.976 491.505 280.664 492.069 280.664 492.789ZM298.67 493.041V483.717H294.818V479.577H298.67V474.789L303.602 473.673V479.577H308.93V483.717H303.602V492.033C303.602 492.921 303.794 493.545 304.178 493.905C304.562 494.265 305.234 494.445 306.194 494.445C306.65 494.445 307.082 494.421 307.49 494.373C307.898 494.301 308.342 494.181 308.822 494.013V498.045C308.294 498.213 307.658 498.345 306.914 498.441C306.17 498.561 305.534 498.621 305.006 498.621C302.918 498.621 301.334 498.153 300.254 497.217C299.198 496.257 298.67 494.865 298.67 493.041ZM317.311 498.657C315.295 498.657 313.651 498.129 312.379 497.073C311.107 495.993 310.471 494.601 310.471 492.897C310.471 491.121 311.155 489.729 312.523 488.721C313.891 487.713 315.775 487.209 318.175 487.209C318.943 487.209 319.711 487.269 320.479 487.389C321.247 487.509 322.003 487.689 322.747 487.929V486.597C322.747 485.517 322.411 484.701 321.739 484.149C321.067 483.597 320.083 483.321 318.787 483.321C317.995 483.321 317.131 483.453 316.195 483.717C315.283 483.957 314.239 484.341 313.063 484.869L311.263 481.233C312.727 480.561 314.143 480.057 315.511 479.721C316.903 479.385 318.271 479.217 319.615 479.217C322.135 479.217 324.091 479.829 325.483 481.053C326.899 482.253 327.607 483.957 327.607 486.165V498.333H322.747V497.037C321.955 497.589 321.115 497.997 320.227 498.261C319.363 498.525 318.391 498.657 317.311 498.657ZM315.187 492.789C315.187 493.509 315.499 494.085 316.123 494.517C316.747 494.925 317.575 495.129 318.607 495.129C319.423 495.129 320.167 495.033 320.839 494.841C321.535 494.625 322.171 494.325 322.747 493.941V491.133C322.147 490.893 321.511 490.725 320.839 490.629C320.191 490.509 319.507 490.449 318.787 490.449C317.659 490.449 316.771 490.665 316.123 491.097C315.499 491.505 315.187 492.069 315.187 492.789ZM329.341 479.577H333.517V477.777C333.517 475.689 334.129 474.081 335.353 472.953C336.577 471.825 338.341 471.261 340.645 471.261C341.149 471.261 341.665 471.297 342.193 471.369C342.721 471.417 343.177 471.489 343.561 471.585V475.725C343.105 475.629 342.697 475.557 342.337 475.509C342.001 475.461 341.641 475.437 341.257 475.437C340.321 475.437 339.613 475.641 339.133 476.049C338.677 476.457 338.449 477.069 338.449 477.885V479.577H343.561V483.717H338.449V498.333H333.517V483.717H329.341V479.577ZM344.75 488.973C344.75 487.605 345.002 486.333 345.506 485.157C346.034 483.957 346.742 482.925 347.63 482.061C348.542 481.173 349.61 480.477 350.834 479.973C352.058 479.469 353.366 479.217 354.758 479.217C356.15 479.217 357.458 479.469 358.682 479.973C359.906 480.477 360.962 481.173 361.85 482.061C362.762 482.925 363.47 483.957 363.974 485.157C364.502 486.333 364.766 487.605 364.766 488.973C364.766 490.341 364.502 491.625 363.974 492.825C363.47 494.001 362.762 495.021 361.85 495.885C360.962 496.749 359.906 497.433 358.682 497.937C357.458 498.441 356.15 498.693 354.758 498.693C353.366 498.693 352.058 498.441 350.834 497.937C349.61 497.433 348.542 496.749 347.63 495.885C346.742 495.021 346.034 494.001 345.506 492.825C345.002 491.625 344.75 490.341 344.75 488.973ZM354.758 494.409C356.198 494.409 357.422 493.881 358.43 492.825C359.438 491.769 359.942 490.485 359.942 488.973C359.942 487.437 359.438 486.141 358.43 485.085C357.422 484.029 356.198 483.501 354.758 483.501C353.318 483.501 352.094 484.029 351.086 485.085C350.078 486.141 349.574 487.437 349.574 488.973C349.574 490.485 350.078 491.769 351.086 492.825C352.094 493.881 353.318 494.409 354.758 494.409ZM367.797 498.333V479.577H372.729V481.629C373.329 480.813 374.049 480.201 374.889 479.793C375.753 479.361 376.701 479.145 377.733 479.145C378.213 479.169 378.609 479.217 378.921 479.289C379.257 479.337 379.545 479.433 379.785 479.577V483.897C379.425 483.729 379.029 483.609 378.597 483.537C378.165 483.441 377.721 483.393 377.265 483.393C376.305 483.393 375.417 483.633 374.601 484.113C373.809 484.593 373.185 485.289 372.729 486.201V498.333H367.797ZM382.457 498.333V479.577H387.389V480.981C388.061 480.405 388.805 479.973 389.621 479.685C390.437 479.373 391.325 479.217 392.285 479.217C393.485 479.217 394.565 479.469 395.525 479.973C396.509 480.453 397.313 481.137 397.937 482.025C398.681 481.113 399.581 480.417 400.637 479.937C401.693 479.457 402.857 479.217 404.129 479.217C406.217 479.217 407.933 479.913 409.277 481.305C410.621 482.697 411.293 484.485 411.293 486.669V498.333H406.361V487.389C406.361 486.213 406.037 485.265 405.389 484.545C404.765 483.825 403.913 483.465 402.833 483.465C402.089 483.465 401.405 483.633 400.781 483.969C400.181 484.281 399.665 484.737 399.233 485.337C399.257 485.553 399.281 485.769 399.305 485.985C399.329 486.201 399.341 486.429 399.341 486.669V498.333H394.409V487.389C394.409 486.213 394.085 485.265 393.437 484.545C392.813 483.825 391.961 483.465 390.881 483.465C390.137 483.465 389.477 483.609 388.901 483.897C388.325 484.185 387.821 484.605 387.389 485.157V498.333H382.457ZM421.022 498.657C419.006 498.657 417.362 498.129 416.09 497.073C414.818 495.993 414.182 494.601 414.182 492.897C414.182 491.121 414.866 489.729 416.234 488.721C417.602 487.713 419.486 487.209 421.886 487.209C422.654 487.209 423.422 487.269 424.19 487.389C424.958 487.509 425.714 487.689 426.458 487.929V486.597C426.458 485.517 426.122 484.701 425.45 484.149C424.778 483.597 423.794 483.321 422.498 483.321C421.706 483.321 420.842 483.453 419.906 483.717C418.994 483.957 417.95 484.341 416.774 484.869L414.974 481.233C416.438 480.561 417.854 480.057 419.222 479.721C420.614 479.385 421.982 479.217 423.326 479.217C425.846 479.217 427.802 479.829 429.194 481.053C430.61 482.253 431.318 483.957 431.318 486.165V498.333H426.458V497.037C425.666 497.589 424.826 497.997 423.938 498.261C423.074 498.525 422.102 498.657 421.022 498.657ZM418.898 492.789C418.898 493.509 419.21 494.085 419.834 494.517C420.458 494.925 421.286 495.129 422.318 495.129C423.134 495.129 423.878 495.033 424.55 494.841C425.246 494.625 425.882 494.325 426.458 493.941V491.133C425.858 490.893 425.222 490.725 424.55 490.629C423.902 490.509 423.218 490.449 422.498 490.449C421.37 490.449 420.482 490.665 419.834 491.097C419.21 491.505 418.898 492.069 418.898 492.789ZM467.637 485.769C467.637 487.617 467.313 489.345 466.665 490.953C466.041 492.537 465.165 493.905 464.037 495.057C462.933 496.185 461.601 497.085 460.041 497.757C458.481 498.405 456.801 498.729 455.001 498.729C453.129 498.729 451.377 498.393 449.745 497.721C448.113 497.049 446.697 496.137 445.497 494.985C444.321 493.809 443.385 492.429 442.689 490.845C441.993 489.261 441.645 487.557 441.645 485.733C441.645 483.909 441.981 482.205 442.653 480.621C443.349 479.037 444.285 477.669 445.461 476.517C446.661 475.341 448.077 474.417 449.709 473.745C451.341 473.073 453.081 472.737 454.929 472.737C457.017 472.737 458.985 473.157 460.833 473.997C462.681 474.837 464.205 475.989 465.405 477.453L461.769 480.801C460.881 479.745 459.849 478.941 458.673 478.389C457.521 477.813 456.273 477.525 454.929 477.525C453.801 477.525 452.745 477.741 451.761 478.173C450.801 478.581 449.961 479.157 449.241 479.901C448.545 480.621 447.993 481.485 447.585 482.493C447.201 483.477 447.009 484.557 447.009 485.733C447.009 486.909 447.213 488.001 447.621 489.009C448.029 490.017 448.593 490.893 449.313 491.637C450.033 492.357 450.885 492.933 451.869 493.365C452.877 493.773 453.945 493.977 455.073 493.977C456.849 493.977 458.373 493.485 459.645 492.501C460.941 491.517 461.745 490.257 462.057 488.721H454.605V484.185H467.637V485.769ZM475.807 472.053V498.333H470.875V473.133L475.807 472.053ZM478.8 488.973C478.8 487.605 479.052 486.333 479.556 485.157C480.084 483.957 480.792 482.925 481.68 482.061C482.592 481.173 483.66 480.477 484.884 479.973C486.108 479.469 487.416 479.217 488.808 479.217C490.2 479.217 491.508 479.469 492.732 479.973C493.956 480.477 495.012 481.173 495.9 482.061C496.812 482.925 497.52 483.957 498.024 485.157C498.552 486.333 498.816 487.605 498.816 488.973C498.816 490.341 498.552 491.625 498.024 492.825C497.52 494.001 496.812 495.021 495.9 495.885C495.012 496.749 493.956 497.433 492.732 497.937C491.508 498.441 490.2 498.693 488.808 498.693C487.416 498.693 486.108 498.441 484.884 497.937C483.66 497.433 482.592 496.749 481.68 495.885C480.792 495.021 480.084 494.001 479.556 492.825C479.052 491.625 478.8 490.341 478.8 488.973ZM488.808 494.409C490.248 494.409 491.472 493.881 492.48 492.825C493.488 491.769 493.992 490.485 493.992 488.973C493.992 487.437 493.488 486.141 492.48 485.085C491.472 484.029 490.248 483.501 488.808 483.501C487.368 483.501 486.144 484.029 485.136 485.085C484.128 486.141 483.624 487.437 483.624 488.973C483.624 490.485 484.128 491.769 485.136 492.825C486.144 493.881 487.368 494.409 488.808 494.409ZM521.576 488.973C521.576 490.317 521.324 491.577 520.82 492.753C520.316 493.929 519.632 494.949 518.768 495.813C517.904 496.677 516.872 497.361 515.672 497.865C514.496 498.345 513.236 498.585 511.892 498.585C510.956 498.585 510.044 498.453 509.156 498.189C508.268 497.925 507.452 497.553 506.708 497.073V498.333H501.848V473.133L506.78 472.053V481.053C507.524 480.501 508.34 480.081 509.228 479.793C510.14 479.481 511.076 479.325 512.036 479.325C513.356 479.325 514.592 479.577 515.744 480.081C516.92 480.585 517.94 481.269 518.804 482.133C519.668 482.997 520.34 484.017 520.82 485.193C521.324 486.369 521.576 487.629 521.576 488.973ZM511.244 483.537C510.356 483.537 509.528 483.693 508.76 484.005C507.992 484.293 507.332 484.725 506.78 485.301V492.681C507.308 493.209 507.956 493.629 508.724 493.941C509.516 494.253 510.356 494.409 511.244 494.409C512.78 494.409 514.076 493.893 515.132 492.861C516.188 491.805 516.716 490.509 516.716 488.973C516.716 487.437 516.176 486.153 515.096 485.121C514.04 484.065 512.756 483.537 511.244 483.537ZM530.71 498.657C528.694 498.657 527.05 498.129 525.778 497.073C524.506 495.993 523.87 494.601 523.87 492.897C523.87 491.121 524.554 489.729 525.922 488.721C527.29 487.713 529.174 487.209 531.574 487.209C532.342 487.209 533.11 487.269 533.878 487.389C534.646 487.509 535.402 487.689 536.146 487.929V486.597C536.146 485.517 535.81 484.701 535.138 484.149C534.466 483.597 533.482 483.321 532.186 483.321C531.394 483.321 530.53 483.453 529.594 483.717C528.682 483.957 527.638 484.341 526.462 484.869L524.662 481.233C526.126 480.561 527.542 480.057 528.91 479.721C530.302 479.385 531.67 479.217 533.014 479.217C535.534 479.217 537.49 479.829 538.882 481.053C540.298 482.253 541.006 483.957 541.006 486.165V498.333H536.146V497.037C535.354 497.589 534.514 497.997 533.626 498.261C532.762 498.525 531.79 498.657 530.71 498.657ZM528.586 492.789C528.586 493.509 528.898 494.085 529.522 494.517C530.146 494.925 530.974 495.129 532.006 495.129C532.822 495.129 533.566 495.033 534.238 494.841C534.934 494.625 535.57 494.325 536.146 493.941V491.133C535.546 490.893 534.91 490.725 534.238 490.629C533.59 490.509 532.906 490.449 532.186 490.449C531.058 490.449 530.17 490.665 529.522 491.097C528.898 491.505 528.586 492.069 528.586 492.789ZM549.671 472.053V498.333H544.739V473.133L549.671 472.053ZM574.774 498.333V496.785C574.03 497.385 573.202 497.841 572.29 498.153C571.378 498.441 570.43 498.585 569.446 498.585C568.126 498.585 566.878 498.333 565.702 497.829C564.55 497.325 563.542 496.641 562.678 495.777C561.814 494.913 561.13 493.893 560.626 492.717C560.146 491.541 559.906 490.281 559.906 488.937C559.906 487.593 560.158 486.333 560.662 485.157C561.166 483.981 561.85 482.961 562.714 482.097C563.578 481.233 564.598 480.561 565.774 480.081C566.974 479.577 568.246 479.325 569.59 479.325C570.502 479.325 571.39 479.457 572.254 479.721C573.142 479.961 573.958 480.321 574.702 480.801V473.133L579.634 472.053V498.333H574.774ZM564.766 488.937C564.766 490.449 565.294 491.733 566.35 492.789C567.406 493.845 568.702 494.373 570.238 494.373C571.15 494.373 571.978 494.217 572.722 493.905C573.49 493.593 574.15 493.149 574.702 492.573V485.265C574.174 484.713 573.514 484.281 572.722 483.969C571.954 483.657 571.126 483.501 570.238 483.501C568.678 483.501 567.37 484.029 566.314 485.085C565.282 486.117 564.766 487.401 564.766 488.937ZM600.328 495.993C599.176 496.929 597.988 497.613 596.764 498.045C595.564 498.477 594.22 498.693 592.732 498.693C591.316 498.693 589.984 498.441 588.736 497.937C587.512 497.433 586.444 496.749 585.532 495.885C584.644 495.021 583.936 494.001 583.408 492.825C582.904 491.625 582.652 490.341 582.652 488.973C582.652 487.629 582.892 486.369 583.372 485.193C583.876 483.993 584.56 482.961 585.424 482.097C586.288 481.209 587.308 480.513 588.484 480.009C589.684 479.505 590.956 479.253 592.3 479.253C593.62 479.253 594.844 479.517 595.972 480.045C597.124 480.549 598.108 481.245 598.924 482.133C599.764 483.021 600.412 484.089 600.868 485.337C601.348 486.561 601.588 487.893 601.588 489.333V490.629H587.62C587.956 491.805 588.604 492.753 589.564 493.473C590.524 494.193 591.652 494.553 592.948 494.553C593.764 494.553 594.532 494.421 595.252 494.157C595.972 493.893 596.584 493.521 597.088 493.041L600.328 495.993ZM592.192 483.321C591.064 483.321 590.092 483.669 589.276 484.365C588.46 485.037 587.896 485.949 587.584 487.101H596.764C596.452 485.997 595.876 485.097 595.036 484.401C594.22 483.681 593.272 483.321 592.192 483.321ZM610.016 494.337L613.004 490.593C614.468 491.865 615.872 492.801 617.216 493.401C618.584 493.977 620.024 494.265 621.536 494.265C623.096 494.265 624.344 493.977 625.28 493.401C626.216 492.825 626.684 492.057 626.684 491.097C626.684 490.233 626.36 489.561 625.712 489.081C625.088 488.601 624.032 488.241 622.544 488.001L617.54 487.137C615.38 486.777 613.736 486.021 612.608 484.869C611.504 483.717 610.952 482.229 610.952 480.405C610.952 478.053 611.84 476.193 613.616 474.825C615.416 473.457 617.84 472.773 620.888 472.773C622.712 472.773 624.548 473.085 626.396 473.709C628.268 474.333 629.9 475.197 631.292 476.301L628.484 480.189C627.14 479.157 625.82 478.401 624.524 477.921C623.228 477.417 621.896 477.165 620.528 477.165C619.136 477.165 618.02 477.429 617.18 477.957C616.34 478.461 615.92 479.145 615.92 480.009C615.92 480.777 616.196 481.377 616.748 481.809C617.3 482.241 618.224 482.553 619.52 482.745L624.272 483.537C626.768 483.945 628.64 484.749 629.888 485.949C631.16 487.125 631.796 488.685 631.796 490.629C631.796 493.077 630.824 495.033 628.88 496.497C626.96 497.961 624.392 498.693 621.176 498.693C619.16 498.693 617.168 498.309 615.2 497.541C613.256 496.773 611.528 495.705 610.016 494.337ZM636.451 493.041V483.717H632.599V479.577H636.451V474.789L641.383 473.673V479.577H646.711V483.717H641.383V492.033C641.383 492.921 641.575 493.545 641.959 493.905C642.343 494.265 643.015 494.445 643.975 494.445C644.431 494.445 644.863 494.421 645.271 494.373C645.679 494.301 646.123 494.181 646.603 494.013V498.045C646.075 498.213 645.439 498.345 644.695 498.441C643.951 498.561 643.315 498.621 642.787 498.621C640.699 498.621 639.115 498.153 638.035 497.217C636.979 496.257 636.451 494.865 636.451 493.041ZM649.153 498.333V479.577H654.085V481.629C654.685 480.813 655.405 480.201 656.245 479.793C657.109 479.361 658.057 479.145 659.089 479.145C659.569 479.169 659.965 479.217 660.277 479.289C660.613 479.337 660.901 479.433 661.141 479.577V483.897C660.781 483.729 660.385 483.609 659.953 483.537C659.521 483.441 659.077 483.393 658.621 483.393C657.661 483.393 656.773 483.633 655.957 484.113C655.165 484.593 654.541 485.289 654.085 486.201V498.333H649.153ZM679.711 495.993C678.559 496.929 677.371 497.613 676.147 498.045C674.947 498.477 673.603 498.693 672.115 498.693C670.699 498.693 669.367 498.441 668.119 497.937C666.895 497.433 665.827 496.749 664.915 495.885C664.027 495.021 663.319 494.001 662.791 492.825C662.287 491.625 662.035 490.341 662.035 488.973C662.035 487.629 662.275 486.369 662.755 485.193C663.259 483.993 663.943 482.961 664.807 482.097C665.671 481.209 666.691 480.513 667.867 480.009C669.067 479.505 670.339 479.253 671.683 479.253C673.003 479.253 674.227 479.517 675.355 480.045C676.507 480.549 677.491 481.245 678.307 482.133C679.147 483.021 679.795 484.089 680.251 485.337C680.731 486.561 680.971 487.893 680.971 489.333V490.629H667.003C667.339 491.805 667.987 492.753 668.947 493.473C669.907 494.193 671.035 494.553 672.331 494.553C673.147 494.553 673.915 494.421 674.635 494.157C675.355 493.893 675.967 493.521 676.471 493.041L679.711 495.993ZM671.575 483.321C670.447 483.321 669.475 483.669 668.659 484.365C667.843 485.037 667.279 485.949 666.967 487.101H676.147C675.835 485.997 675.259 485.097 674.419 484.401C673.603 483.681 672.655 483.321 671.575 483.321ZM689.862 498.657C687.846 498.657 686.202 498.129 684.93 497.073C683.658 495.993 683.022 494.601 683.022 492.897C683.022 491.121 683.706 489.729 685.074 488.721C686.442 487.713 688.326 487.209 690.726 487.209C691.494 487.209 692.262 487.269 693.03 487.389C693.798 487.509 694.554 487.689 695.298 487.929V486.597C695.298 485.517 694.962 484.701 694.29 484.149C693.618 483.597 692.634 483.321 691.338 483.321C690.546 483.321 689.682 483.453 688.746 483.717C687.834 483.957 686.79 484.341 685.614 484.869L683.814 481.233C685.278 480.561 686.694 480.057 688.062 479.721C689.454 479.385 690.822 479.217 692.166 479.217C694.686 479.217 696.642 479.829 698.034 481.053C699.45 482.253 700.158 483.957 700.158 486.165V498.333H695.298V497.037C694.506 497.589 693.666 497.997 692.778 498.261C691.914 498.525 690.942 498.657 689.862 498.657ZM687.738 492.789C687.738 493.509 688.05 494.085 688.674 494.517C689.298 494.925 690.126 495.129 691.158 495.129C691.974 495.129 692.718 495.033 693.39 494.841C694.086 494.625 694.722 494.325 695.298 493.941V491.133C694.698 490.893 694.062 490.725 693.39 490.629C692.742 490.509 692.058 490.449 691.338 490.449C690.21 490.449 689.322 490.665 688.674 491.097C688.05 491.505 687.738 492.069 687.738 492.789ZM703.891 498.333V479.577H708.823V480.981C709.495 480.405 710.239 479.973 711.055 479.685C711.871 479.373 712.759 479.217 713.719 479.217C714.919 479.217 715.999 479.469 716.959 479.973C717.943 480.453 718.747 481.137 719.371 482.025C720.115 481.113 721.015 480.417 722.071 479.937C723.127 479.457 724.291 479.217 725.563 479.217C727.651 479.217 729.367 479.913 730.711 481.305C732.055 482.697 732.727 484.485 732.727 486.669V498.333H727.795V487.389C727.795 486.213 727.471 485.265 726.823 484.545C726.199 483.825 725.347 483.465 724.267 483.465C723.523 483.465 722.839 483.633 722.215 483.969C721.615 484.281 721.099 484.737 720.667 485.337C720.691 485.553 720.715 485.769 720.739 485.985C720.763 486.201 720.775 486.429 720.775 486.669V498.333H715.843V487.389C715.843 486.213 715.519 485.265 714.871 484.545C714.247 483.825 713.395 483.465 712.315 483.465C711.571 483.465 710.911 483.609 710.335 483.897C709.759 484.185 709.255 484.605 708.823 485.157V498.333H703.891ZM738.964 477.345C738.196 477.345 737.536 477.069 736.984 476.517C736.432 475.965 736.156 475.305 736.156 474.537C736.156 473.769 736.432 473.109 736.984 472.557C737.536 472.005 738.196 471.729 738.964 471.729C739.732 471.729 740.392 472.005 740.944 472.557C741.496 473.109 741.772 473.769 741.772 474.537C741.772 475.305 741.496 475.965 740.944 476.517C740.392 477.069 739.732 477.345 738.964 477.345ZM741.448 479.577V498.333H736.516V479.577H741.448ZM745.305 498.333V479.577H750.237V481.053C750.957 480.453 751.749 479.997 752.613 479.685C753.501 479.373 754.461 479.217 755.493 479.217C757.653 479.217 759.429 479.913 760.821 481.305C762.213 482.697 762.909 484.485 762.909 486.669V498.333H757.977V487.389C757.977 486.213 757.617 485.265 756.897 484.545C756.201 483.825 755.265 483.465 754.089 483.465C753.273 483.465 752.529 483.633 751.857 483.969C751.209 484.281 750.669 484.737 750.237 485.337V498.333H745.305ZM775.285 498.441C773.965 498.441 772.717 498.189 771.541 497.685C770.389 497.181 769.381 496.497 768.517 495.633C767.677 494.769 767.005 493.761 766.501 492.609C766.021 491.433 765.781 490.173 765.781 488.829C765.781 487.509 766.033 486.273 766.537 485.121C767.041 483.945 767.725 482.925 768.589 482.061C769.453 481.197 770.473 480.525 771.649 480.045C772.825 479.541 774.085 479.289 775.429 479.289C776.365 479.289 777.253 479.421 778.093 479.685C778.957 479.949 779.761 480.321 780.505 480.801V479.577H785.365V498.333C785.365 500.805 784.561 502.713 782.953 504.057C781.369 505.401 779.077 506.073 776.077 506.073C774.637 506.073 773.245 505.929 771.901 505.641C770.581 505.353 769.369 504.933 768.265 504.381L769.993 500.529C771.025 501.033 772.033 501.405 773.017 501.645C774.001 501.909 774.985 502.041 775.969 502.041C777.433 502.041 778.537 501.717 779.281 501.069C780.049 500.445 780.433 499.521 780.433 498.297V496.749C779.689 497.301 778.873 497.721 777.985 498.009C777.121 498.297 776.221 498.441 775.285 498.441ZM770.641 488.829C770.641 490.341 771.157 491.625 772.189 492.681C773.245 493.737 774.529 494.265 776.041 494.265C776.929 494.265 777.745 494.121 778.489 493.833C779.233 493.521 779.881 493.101 780.433 492.573V485.193C779.905 484.665 779.257 484.257 778.489 483.969C777.721 483.657 776.917 483.501 776.077 483.501C774.565 483.501 773.281 484.017 772.225 485.049C771.169 486.081 770.641 487.341 770.641 488.829ZM810.497 498.333V496.785C809.753 497.385 808.925 497.841 808.013 498.153C807.101 498.441 806.153 498.585 805.169 498.585C803.849 498.585 802.601 498.333 801.425 497.829C800.273 497.325 799.265 496.641 798.401 495.777C797.537 494.913 796.853 493.893 796.349 492.717C795.869 491.541 795.629 490.281 795.629 488.937C795.629 487.593 795.881 486.333 796.385 485.157C796.889 483.981 797.573 482.961 798.437 482.097C799.301 481.233 800.321 480.561 801.497 480.081C802.697 479.577 803.969 479.325 805.313 479.325C806.225 479.325 807.113 479.457 807.977 479.721C808.865 479.961 809.681 480.321 810.425 480.801V473.133L815.357 472.053V498.333H810.497ZM800.489 488.937C800.489 490.449 801.017 491.733 802.073 492.789C803.129 493.845 804.425 494.373 805.961 494.373C806.873 494.373 807.701 494.217 808.445 493.905C809.213 493.593 809.873 493.149 810.425 492.573V485.265C809.897 484.713 809.237 484.281 808.445 483.969C807.677 483.657 806.849 483.501 805.961 483.501C804.401 483.501 803.093 484.029 802.037 485.085C801.005 486.117 800.489 487.401 800.489 488.937ZM836.051 495.993C834.899 496.929 833.711 497.613 832.487 498.045C831.287 498.477 829.943 498.693 828.455 498.693C827.039 498.693 825.707 498.441 824.459 497.937C823.235 497.433 822.167 496.749 821.255 495.885C820.367 495.021 819.659 494.001 819.131 492.825C818.627 491.625 818.375 490.341 818.375 488.973C818.375 487.629 818.615 486.369 819.095 485.193C819.599 483.993 820.283 482.961 821.147 482.097C822.011 481.209 823.031 480.513 824.207 480.009C825.407 479.505 826.679 479.253 828.023 479.253C829.343 479.253 830.567 479.517 831.695 480.045C832.847 480.549 833.831 481.245 834.647 482.133C835.487 483.021 836.135 484.089 836.591 485.337C837.071 486.561 837.311 487.893 837.311 489.333V490.629H823.343C823.679 491.805 824.327 492.753 825.287 493.473C826.247 494.193 827.375 494.553 828.671 494.553C829.487 494.553 830.255 494.421 830.975 494.157C831.695 493.893 832.307 493.521 832.811 493.041L836.051 495.993ZM827.915 483.321C826.787 483.321 825.815 483.669 824.999 484.365C824.183 485.037 823.619 485.949 823.307 487.101H832.487C832.175 485.997 831.599 485.097 830.759 484.401C829.943 483.681 828.995 483.321 827.915 483.321ZM507.256 536.541C507.256 538.053 507.004 539.445 506.5 540.717C505.996 541.965 505.288 543.033 504.376 543.921C503.488 544.809 502.396 545.493 501.1 545.973C499.828 546.453 498.412 546.693 496.852 546.693C494.356 546.693 492.22 546.057 490.444 544.785C488.668 543.513 487.408 541.689 486.664 539.313L491.488 537.477C492.016 538.989 492.724 540.117 493.612 540.861C494.5 541.605 495.592 541.977 496.888 541.977C498.424 541.977 499.66 541.461 500.596 540.429C501.556 539.397 502.036 538.053 502.036 536.397V521.133H507.256V536.541ZM510.23 536.973C510.23 535.605 510.482 534.333 510.986 533.157C511.514 531.957 512.222 530.925 513.11 530.061C514.022 529.173 515.09 528.477 516.314 527.973C517.538 527.469 518.846 527.217 520.238 527.217C521.63 527.217 522.938 527.469 524.162 527.973C525.386 528.477 526.442 529.173 527.33 530.061C528.242 530.925 528.95 531.957 529.454 533.157C529.982 534.333 530.246 535.605 530.246 536.973C530.246 538.341 529.982 539.625 529.454 540.825C528.95 542.001 528.242 543.021 527.33 543.885C526.442 544.749 525.386 545.433 524.162 545.937C522.938 546.441 521.63 546.693 520.238 546.693C518.846 546.693 517.538 546.441 516.314 545.937C515.09 545.433 514.022 544.749 513.11 543.885C512.222 543.021 511.514 542.001 510.986 540.825C510.482 539.625 510.23 538.341 510.23 536.973ZM520.238 542.409C521.678 542.409 522.902 541.881 523.91 540.825C524.918 539.769 525.422 538.485 525.422 536.973C525.422 535.437 524.918 534.141 523.91 533.085C522.902 532.029 521.678 531.501 520.238 531.501C518.798 531.501 517.574 532.029 516.566 533.085C515.558 534.141 515.054 535.437 515.054 536.973C515.054 538.485 515.558 539.769 516.566 540.825C517.574 541.881 518.798 542.409 520.238 542.409ZM542.058 546.441C540.738 546.441 539.49 546.189 538.314 545.685C537.162 545.181 536.154 544.497 535.29 543.633C534.45 542.769 533.778 541.761 533.274 540.609C532.794 539.433 532.554 538.173 532.554 536.829C532.554 535.509 532.806 534.273 533.31 533.121C533.814 531.945 534.498 530.925 535.362 530.061C536.226 529.197 537.246 528.525 538.422 528.045C539.598 527.541 540.858 527.289 542.202 527.289C543.138 527.289 544.026 527.421 544.866 527.685C545.73 527.949 546.534 528.321 547.278 528.801V527.577H552.138V546.333C552.138 548.805 551.334 550.713 549.726 552.057C548.142 553.401 545.85 554.073 542.85 554.073C541.41 554.073 540.018 553.929 538.674 553.641C537.354 553.353 536.142 552.933 535.038 552.381L536.766 548.529C537.798 549.033 538.806 549.405 539.79 549.645C540.774 549.909 541.758 550.041 542.742 550.041C544.206 550.041 545.31 549.717 546.054 549.069C546.822 548.445 547.206 547.521 547.206 546.297V544.749C546.462 545.301 545.646 545.721 544.758 546.009C543.894 546.297 542.994 546.441 542.058 546.441ZM537.414 536.829C537.414 538.341 537.93 539.625 538.962 540.681C540.018 541.737 541.302 542.265 542.814 542.265C543.702 542.265 544.518 542.121 545.262 541.833C546.006 541.521 546.654 541.101 547.206 540.573V533.193C546.678 532.665 546.03 532.257 545.262 531.969C544.494 531.657 543.69 531.501 542.85 531.501C541.338 531.501 540.054 532.017 538.998 533.049C537.942 534.081 537.414 535.341 537.414 536.829ZM555.16 536.973C555.16 535.605 555.412 534.333 555.916 533.157C556.444 531.957 557.152 530.925 558.04 530.061C558.952 529.173 560.02 528.477 561.244 527.973C562.468 527.469 563.776 527.217 565.168 527.217C566.56 527.217 567.868 527.469 569.092 527.973C570.316 528.477 571.372 529.173 572.26 530.061C573.172 530.925 573.88 531.957 574.384 533.157C574.912 534.333 575.176 535.605 575.176 536.973C575.176 538.341 574.912 539.625 574.384 540.825C573.88 542.001 573.172 543.021 572.26 543.885C571.372 544.749 570.316 545.433 569.092 545.937C567.868 546.441 566.56 546.693 565.168 546.693C563.776 546.693 562.468 546.441 561.244 545.937C560.02 545.433 558.952 544.749 558.04 543.885C557.152 543.021 556.444 542.001 555.916 540.825C555.412 539.625 555.16 538.341 555.16 536.973ZM565.168 542.409C566.608 542.409 567.832 541.881 568.84 540.825C569.848 539.769 570.352 538.485 570.352 536.973C570.352 535.437 569.848 534.141 568.84 533.085C567.832 532.029 566.608 531.501 565.168 531.501C563.728 531.501 562.504 532.029 561.496 533.085C560.488 534.141 559.984 535.437 559.984 536.973C559.984 538.485 560.488 539.769 561.496 540.825C562.504 541.881 563.728 542.409 565.168 542.409ZM576.623 544.101L579.071 540.825C580.175 541.545 581.219 542.085 582.203 542.445C583.187 542.781 584.171 542.949 585.155 542.949C586.259 542.949 587.135 542.769 587.783 542.409C588.455 542.049 588.791 541.569 588.791 540.969C588.791 540.489 588.599 540.105 588.215 539.817C587.855 539.529 587.267 539.325 586.451 539.205L582.851 538.665C581.003 538.377 579.587 537.777 578.603 536.865C577.643 535.953 577.163 534.741 577.163 533.229C577.163 531.429 577.871 529.989 579.287 528.909C580.703 527.829 582.599 527.289 584.975 527.289C586.343 527.289 587.675 527.493 588.971 527.901C590.267 528.285 591.503 528.861 592.679 529.629L590.303 532.797C589.271 532.197 588.287 531.753 587.351 531.465C586.415 531.153 585.467 530.997 584.507 530.997C583.619 530.997 582.899 531.165 582.347 531.501C581.819 531.837 581.555 532.281 581.555 532.833C581.555 533.337 581.747 533.733 582.131 534.021C582.539 534.285 583.199 534.477 584.111 534.597L587.711 535.137C589.535 535.401 590.939 536.001 591.923 536.937C592.931 537.873 593.435 539.061 593.435 540.501C593.435 541.389 593.219 542.217 592.787 542.985C592.379 543.729 591.815 544.377 591.095 544.929C590.375 545.481 589.511 545.913 588.503 546.225C587.495 546.537 586.403 546.693 585.227 546.693C583.523 546.693 581.927 546.477 580.439 546.045C578.951 545.589 577.679 544.941 576.623 544.101Z" fill="white"/>
<g filter="url(#filter0_i_313_16)">
<path d="M621.311 416.741C589.591 416.741 572.127 413.481 557.476 405.481C542.825 397.304 535.5 385.659 535.5 370.548V322.933C535.5 307.822 542.825 296.267 557.476 288.267C572.127 280.089 593.405 276 621.311 276C649.217 276 670.495 280.089 685.146 288.267C699.797 296.267 707.122 307.822 707.122 322.933V327.852H652.705V321.067C652.705 308.8 642.764 302.667 622.881 302.667C602.998 302.667 593.056 308.8 593.056 321.067V372.681C593.056 384.77 602.998 390.815 622.881 390.815C642.764 390.815 652.705 377.363 652.705 365.274V361.185H623.927V342.667H707.122V363.141C707.122 378.252 699.797 397.304 685.146 405.481C670.495 413.481 647.729 416.741 621.311 416.741Z" fill="white"/>
<path d="M621.311 416.741C589.591 416.741 572.127 413.481 557.476 405.481C542.825 397.304 535.5 385.659 535.5 370.548V322.933C535.5 307.822 542.825 296.267 557.476 288.267C572.127 280.089 593.405 276 621.311 276C649.217 276 670.495 280.089 685.146 288.267C699.797 296.267 707.122 307.822 707.122 322.933V327.852H652.705V321.067C652.705 308.8 642.764 302.667 622.881 302.667C602.998 302.667 593.056 308.8 593.056 321.067V372.681C593.056 384.77 602.998 390.815 622.881 390.815C642.764 390.815 652.705 377.363 652.705 365.274V361.185H623.927V342.667H707.122V363.141C707.122 378.252 699.797 397.304 685.146 405.481C670.495 413.481 647.729 416.741 621.311 416.741Z" fill="white"/>
<path d="M373.5 182.667L530.471 194.889V221.556L431.056 213.778V258.667H510.065V285.333H431.056V333.667L530.471 326.556V354.074L373.5 369.333V182.667Z" fill="white"/>
</g>
<defs>
<filter id="filter0_i_313_16" x="373.5" y="182.667" width="335.622" height="236.074" filterUnits="userSpaceOnUse" color-interpolation-filters="sRGB">
<feFlood flood-opacity="0" result="BackgroundImageFix"/>
<feBlend mode="normal" in="SourceGraphic" in2="BackgroundImageFix" result="shape"/>
<feColorMatrix in="SourceAlpha" type="matrix" values="0 0 0 0 0 0 0 0 0 0 0 0 0 0 0 0 0 0 127 0" result="hardAlpha"/>
<feOffset dx="2" dy="2"/>
<feGaussianBlur stdDeviation="1.5"/>
<feComposite in2="hardAlpha" operator="arithmetic" k2="-1" k3="1"/>
<feColorMatrix type="matrix" values="0 0 0 0 0 0 0 0 0 0 0 0 0 0 0 0 0 0 0.45 0"/>
<feBlend mode="normal" in2="shape" result="effect1_innerShadow_313_16"/>
</filter>
<linearGradient id="paint0_linear_313_16" x1="540" y1="5.72205e-06" x2="420.517" y2="684.413" gradientUnits="userSpaceOnUse">
<stop stop-color="#FF4646" stop-opacity="0"/>
<stop offset="0.955958" stop-color="#C4C4C4"/>
</linearGradient>
</defs>
</svg>
