<svg width="1000" height="1200" viewBox="0 0 1000 1200" fill="none" xmlns="http://www.w3.org/2000/svg">
<rect width="1000" height="1200" fill="white"/>
<path d="M810.412 159.836C803.291 150.654 793.539 145.444 783.303 145.333C783.201 145.333 783.112 145.333 783.023 145.333C772.902 145.333 763.187 150.353 756.029 159.311L752.189 164.108C737.49 182.502 737.299 212.222 751.769 230.917C818.829 317.502 855.779 431.534 855.779 552C855.779 672.481 818.842 786.514 751.769 873.083C737.261 891.794 737.477 921.593 752.24 939.971L756.092 944.768C763.238 953.679 772.927 958.667 783.023 958.667C783.138 958.667 783.252 958.667 783.354 958.667C793.564 958.555 803.304 953.329 810.412 944.18C892.361 838.503 937.5 699.23 937.5 552C937.5 404.785 892.361 265.513 810.412 159.836Z" fill="#EEEEEE"/>
<path d="M741.026 342.159C733.893 332.963 724.115 327.753 713.867 327.657C713.79 327.657 713.701 327.657 713.625 327.657C703.466 327.657 693.726 332.724 686.567 341.731L684.698 344.081C670.063 362.491 669.897 392.147 684.342 410.811C713.727 448.726 729.9 498.682 729.9 551.449C729.9 604.232 713.727 654.188 684.355 692.088C669.897 710.752 670.05 740.407 684.698 758.817L686.567 761.168C693.713 770.174 703.466 775.241 713.625 775.241C713.701 775.241 713.79 775.241 713.867 775.241C724.115 775.162 733.893 769.936 741.026 760.755C784.766 704.35 808.862 630.028 808.862 551.449C808.862 472.886 784.779 398.564 741.026 342.159Z" fill="#EEEEEE"/>
<path d="M133.392 552C133.392 431.55 170.451 317.518 237.745 230.917C252.288 212.222 252.084 182.455 237.286 164.061L233.421 159.264C226.238 150.337 216.517 145.333 206.375 145.333C206.273 145.333 206.159 145.333 206.057 145.333C195.8 145.444 186.015 150.654 178.884 159.836C96.664 265.513 51.3889 404.785 51.3889 552C51.3889 699.23 96.664 838.503 178.897 944.164C186.041 953.345 195.825 958.555 206.082 958.667C206.184 958.667 206.286 958.667 206.388 958.667C216.53 958.667 226.277 953.663 233.446 944.704L237.311 939.891C252.084 921.498 252.288 891.762 237.758 873.067C170.451 786.498 133.392 672.465 133.392 552Z" fill="#EEEEEE"/>
<path d="M304.06 343.97L302.172 341.619C295.002 332.677 285.256 327.657 275.114 327.657C275.012 327.657 274.91 327.657 274.808 327.657C264.551 327.753 254.766 332.978 247.622 342.159C203.75 398.548 179.588 472.87 179.588 551.449C179.588 630.028 203.75 704.366 247.635 760.755C254.766 769.92 264.564 775.13 274.82 775.241C274.922 775.241 275.024 775.241 275.114 775.241C285.256 775.241 295.002 770.238 302.172 761.279L304.06 758.928C318.832 740.535 319.024 710.799 304.506 692.088C275.037 654.172 258.797 604.248 258.797 551.449C258.797 498.682 275.024 448.726 304.506 410.811C319.037 392.099 318.845 362.348 304.06 343.97Z" fill="#EEEEEE"/>
<rect width="1000" height="1200" fill="url(#paint0_linear_307_2)"/>
<path d="M229.42 1007.67V982.467H242.056C243.28 982.467 244.408 982.671 245.44 983.079C246.496 983.463 247.396 984.003 248.14 984.699C248.884 985.395 249.46 986.235 249.868 987.219C250.3 988.179 250.516 989.235 250.516 990.387C250.516 991.515 250.3 992.559 249.868 993.519C249.46 994.455 248.872 995.271 248.104 995.967C247.36 996.663 246.472 997.203 245.44 997.587C244.408 997.971 243.28 998.163 242.056 998.163H234.64V1007.67H229.42ZM241.48 986.967H234.64V993.843H241.48C242.608 993.843 243.508 993.531 244.18 992.907C244.876 992.283 245.224 991.455 245.224 990.423C245.224 989.391 244.876 988.563 244.18 987.939C243.508 987.291 242.608 986.967 241.48 986.967ZM258.532 981.387V1007.67H253.6V982.467L258.532 981.387ZM268.329 1007.99C266.313 1007.99 264.669 1007.46 263.397 1006.41C262.125 1005.33 261.489 1003.93 261.489 1002.23C261.489 1000.45 262.173 999.063 263.541 998.055C264.909 997.047 266.793 996.543 269.193 996.543C269.961 996.543 270.729 996.603 271.497 996.723C272.265 996.843 273.021 997.023 273.765 997.263V995.931C273.765 994.851 273.429 994.035 272.757 993.483C272.085 992.931 271.101 992.655 269.805 992.655C269.013 992.655 268.149 992.787 267.213 993.051C266.301 993.291 265.257 993.675 264.081 994.203L262.281 990.567C263.745 989.895 265.161 989.391 266.529 989.055C267.921 988.719 269.289 988.551 270.633 988.551C273.153 988.551 275.109 989.163 276.501 990.387C277.917 991.587 278.625 993.291 278.625 995.499V1007.67H273.765V1006.37C272.973 1006.92 272.133 1007.33 271.245 1007.59C270.381 1007.86 269.409 1007.99 268.329 1007.99ZM266.205 1002.12C266.205 1002.84 266.517 1003.42 267.141 1003.85C267.765 1004.26 268.593 1004.46 269.625 1004.46C270.441 1004.46 271.185 1004.37 271.857 1004.17C272.553 1003.96 273.189 1003.66 273.765 1003.27V1000.47C273.165 1000.23 272.529 1000.06 271.857 999.963C271.209 999.843 270.525 999.783 269.805 999.783C268.677 999.783 267.789 999.999 267.141 1000.43C266.517 1000.84 266.205 1001.4 266.205 1002.12ZM284.211 1002.37V993.051H280.359V988.911H284.211V984.123L289.143 983.007V988.911H294.471V993.051H289.143V1001.37C289.143 1002.25 289.335 1002.88 289.719 1003.24C290.103 1003.6 290.775 1003.78 291.735 1003.78C292.191 1003.78 292.623 1003.75 293.031 1003.71C293.439 1003.63 293.883 1003.51 294.363 1003.35V1007.38C293.835 1007.55 293.199 1007.68 292.455 1007.77C291.711 1007.89 291.075 1007.95 290.547 1007.95C288.459 1007.95 286.875 1007.49 285.795 1006.55C284.739 1005.59 284.211 1004.2 284.211 1002.37ZM302.853 1007.99C300.837 1007.99 299.193 1007.46 297.921 1006.41C296.649 1005.33 296.013 1003.93 296.013 1002.23C296.013 1000.45 296.697 999.063 298.065 998.055C299.433 997.047 301.317 996.543 303.717 996.543C304.485 996.543 305.253 996.603 306.021 996.723C306.789 996.843 307.545 997.023 308.289 997.263V995.931C308.289 994.851 307.953 994.035 307.281 993.483C306.609 992.931 305.625 992.655 304.329 992.655C303.537 992.655 302.673 992.787 301.737 993.051C300.825 993.291 299.781 993.675 298.605 994.203L296.805 990.567C298.269 989.895 299.685 989.391 301.053 989.055C302.445 988.719 303.813 988.551 305.157 988.551C307.677 988.551 309.633 989.163 311.025 990.387C312.441 991.587 313.149 993.291 313.149 995.499V1007.67H308.289V1006.37C307.497 1006.92 306.657 1007.33 305.769 1007.59C304.905 1007.86 303.933 1007.99 302.853 1007.99ZM300.729 1002.12C300.729 1002.84 301.041 1003.42 301.665 1003.85C302.289 1004.26 303.117 1004.46 304.149 1004.46C304.965 1004.46 305.709 1004.37 306.381 1004.17C307.077 1003.96 307.713 1003.66 308.289 1003.27V1000.47C307.689 1000.23 307.053 1000.06 306.381 999.963C305.733 999.843 305.049 999.783 304.329 999.783C303.201 999.783 302.313 999.999 301.665 1000.43C301.041 1000.84 300.729 1001.4 300.729 1002.12ZM314.882 988.911H319.058V987.111C319.058 985.023 319.67 983.415 320.894 982.287C322.118 981.159 323.882 980.595 326.186 980.595C326.69 980.595 327.206 980.631 327.734 980.703C328.262 980.751 328.718 980.823 329.102 980.919V985.059C328.646 984.963 328.238 984.891 327.878 984.843C327.542 984.795 327.182 984.771 326.798 984.771C325.862 984.771 325.154 984.975 324.674 985.383C324.218 985.791 323.99 986.403 323.99 987.219V988.911H329.102V993.051H323.99V1007.67H319.058V993.051H314.882V988.911ZM330.291 998.307C330.291 996.939 330.543 995.667 331.047 994.491C331.575 993.291 332.283 992.259 333.171 991.395C334.083 990.507 335.151 989.811 336.375 989.307C337.599 988.803 338.907 988.551 340.299 988.551C341.691 988.551 342.999 988.803 344.223 989.307C345.447 989.811 346.503 990.507 347.391 991.395C348.303 992.259 349.011 993.291 349.515 994.491C350.043 995.667 350.307 996.939 350.307 998.307C350.307 999.675 350.043 1000.96 349.515 1002.16C349.011 1003.33 348.303 1004.35 347.391 1005.22C346.503 1006.08 345.447 1006.77 344.223 1007.27C342.999 1007.77 341.691 1008.03 340.299 1008.03C338.907 1008.03 337.599 1007.77 336.375 1007.27C335.151 1006.77 334.083 1006.08 333.171 1005.22C332.283 1004.35 331.575 1003.33 331.047 1002.16C330.543 1000.96 330.291 999.675 330.291 998.307ZM340.299 1003.74C341.739 1003.74 342.963 1003.21 343.971 1002.16C344.979 1001.1 345.483 999.819 345.483 998.307C345.483 996.771 344.979 995.475 343.971 994.419C342.963 993.363 341.739 992.835 340.299 992.835C338.859 992.835 337.635 993.363 336.627 994.419C335.619 995.475 335.115 996.771 335.115 998.307C335.115 999.819 335.619 1001.1 336.627 1002.16C337.635 1003.21 338.859 1003.74 340.299 1003.74ZM353.339 1007.67V988.911H358.271V990.963C358.871 990.147 359.591 989.535 360.431 989.127C361.295 988.695 362.243 988.479 363.275 988.479C363.755 988.503 364.151 988.551 364.463 988.623C364.799 988.671 365.087 988.767 365.327 988.911V993.231C364.967 993.063 364.571 992.943 364.139 992.871C363.707 992.775 363.263 992.727 362.807 992.727C361.847 992.727 360.959 992.967 360.143 993.447C359.351 993.927 358.727 994.623 358.271 995.535V1007.67H353.339ZM367.999 1007.67V988.911H372.931V990.315C373.603 989.739 374.347 989.307 375.163 989.019C375.979 988.707 376.867 988.551 377.827 988.551C379.027 988.551 380.107 988.803 381.067 989.307C382.051 989.787 382.855 990.471 383.479 991.359C384.223 990.447 385.123 989.751 386.179 989.271C387.235 988.791 388.399 988.551 389.671 988.551C391.759 988.551 393.475 989.247 394.819 990.639C396.163 992.031 396.835 993.819 396.835 996.003V1007.67H391.903V996.723C391.903 995.547 391.579 994.599 390.931 993.879C390.307 993.159 389.455 992.799 388.375 992.799C387.631 992.799 386.947 992.967 386.323 993.303C385.723 993.615 385.207 994.071 384.775 994.671C384.799 994.887 384.823 995.103 384.847 995.319C384.871 995.535 384.883 995.763 384.883 996.003V1007.67H379.951V996.723C379.951 995.547 379.627 994.599 378.979 993.879C378.355 993.159 377.503 992.799 376.423 992.799C375.679 992.799 375.019 992.943 374.443 993.231C373.867 993.519 373.363 993.939 372.931 994.491V1007.67H367.999ZM406.564 1007.99C404.548 1007.99 402.904 1007.46 401.632 1006.41C400.36 1005.33 399.724 1003.93 399.724 1002.23C399.724 1000.45 400.408 999.063 401.776 998.055C403.144 997.047 405.028 996.543 407.428 996.543C408.196 996.543 408.964 996.603 409.732 996.723C410.5 996.843 411.256 997.023 412 997.263V995.931C412 994.851 411.664 994.035 410.992 993.483C410.32 992.931 409.336 992.655 408.04 992.655C407.248 992.655 406.384 992.787 405.448 993.051C404.536 993.291 403.492 993.675 402.316 994.203L400.516 990.567C401.98 989.895 403.396 989.391 404.764 989.055C406.156 988.719 407.524 988.551 408.868 988.551C411.388 988.551 413.344 989.163 414.736 990.387C416.152 991.587 416.86 993.291 416.86 995.499V1007.67H412V1006.37C411.208 1006.92 410.368 1007.33 409.48 1007.59C408.616 1007.86 407.644 1007.99 406.564 1007.99ZM404.44 1002.12C404.44 1002.84 404.752 1003.42 405.376 1003.85C406 1004.26 406.828 1004.46 407.86 1004.46C408.676 1004.46 409.42 1004.37 410.092 1004.17C410.788 1003.96 411.424 1003.66 412 1003.27V1000.47C411.4 1000.23 410.764 1000.06 410.092 999.963C409.444 999.843 408.76 999.783 408.04 999.783C406.912 999.783 406.024 999.999 405.376 1000.43C404.752 1000.84 404.44 1001.4 404.44 1002.12ZM453.179 995.103C453.179 996.951 452.855 998.679 452.207 1000.29C451.583 1001.87 450.707 1003.24 449.579 1004.39C448.475 1005.52 447.143 1006.42 445.583 1007.09C444.023 1007.74 442.343 1008.06 440.543 1008.06C438.671 1008.06 436.919 1007.73 435.287 1007.05C433.655 1006.38 432.239 1005.47 431.039 1004.32C429.863 1003.14 428.927 1001.76 428.231 1000.18C427.535 998.595 427.187 996.891 427.187 995.067C427.187 993.243 427.523 991.539 428.195 989.955C428.891 988.371 429.827 987.003 431.003 985.851C432.203 984.675 433.619 983.751 435.251 983.079C436.883 982.407 438.623 982.071 440.471 982.071C442.559 982.071 444.527 982.491 446.375 983.331C448.223 984.171 449.747 985.323 450.947 986.787L447.311 990.135C446.423 989.079 445.391 988.275 444.215 987.723C443.063 987.147 441.815 986.859 440.471 986.859C439.343 986.859 438.287 987.075 437.303 987.507C436.343 987.915 435.503 988.491 434.783 989.235C434.087 989.955 433.535 990.819 433.127 991.827C432.743 992.811 432.551 993.891 432.551 995.067C432.551 996.243 432.755 997.335 433.163 998.343C433.571 999.351 434.135 1000.23 434.855 1000.97C435.575 1001.69 436.427 1002.27 437.411 1002.7C438.419 1003.11 439.487 1003.31 440.615 1003.31C442.391 1003.31 443.915 1002.82 445.187 1001.83C446.483 1000.85 447.287 999.591 447.599 998.055H440.147V993.519H453.179V995.103ZM461.349 981.387V1007.67H456.417V982.467L461.349 981.387ZM464.342 998.307C464.342 996.939 464.594 995.667 465.098 994.491C465.626 993.291 466.334 992.259 467.222 991.395C468.134 990.507 469.202 989.811 470.426 989.307C471.65 988.803 472.958 988.551 474.35 988.551C475.742 988.551 477.05 988.803 478.274 989.307C479.498 989.811 480.554 990.507 481.442 991.395C482.354 992.259 483.062 993.291 483.566 994.491C484.094 995.667 484.358 996.939 484.358 998.307C484.358 999.675 484.094 1000.96 483.566 1002.16C483.062 1003.33 482.354 1004.35 481.442 1005.22C480.554 1006.08 479.498 1006.77 478.274 1007.27C477.05 1007.77 475.742 1008.03 474.35 1008.03C472.958 1008.03 471.65 1007.77 470.426 1007.27C469.202 1006.77 468.134 1006.08 467.222 1005.22C466.334 1004.35 465.626 1003.33 465.098 1002.16C464.594 1000.96 464.342 999.675 464.342 998.307ZM474.35 1003.74C475.79 1003.74 477.014 1003.21 478.022 1002.16C479.03 1001.1 479.534 999.819 479.534 998.307C479.534 996.771 479.03 995.475 478.022 994.419C477.014 993.363 475.79 992.835 474.35 992.835C472.91 992.835 471.686 993.363 470.678 994.419C469.67 995.475 469.166 996.771 469.166 998.307C469.166 999.819 469.67 1001.1 470.678 1002.16C471.686 1003.21 472.91 1003.74 474.35 1003.74ZM507.117 998.307C507.117 999.651 506.865 1000.91 506.361 1002.09C505.857 1003.26 505.173 1004.28 504.309 1005.15C503.445 1006.01 502.413 1006.69 501.213 1007.2C500.037 1007.68 498.777 1007.92 497.433 1007.92C496.497 1007.92 495.585 1007.79 494.697 1007.52C493.809 1007.26 492.993 1006.89 492.249 1006.41V1007.67H487.389V982.467L492.321 981.387V990.387C493.065 989.835 493.881 989.415 494.769 989.127C495.681 988.815 496.617 988.659 497.577 988.659C498.897 988.659 500.133 988.911 501.285 989.415C502.461 989.919 503.481 990.603 504.345 991.467C505.209 992.331 505.881 993.351 506.361 994.527C506.865 995.703 507.117 996.963 507.117 998.307ZM496.785 992.871C495.897 992.871 495.069 993.027 494.301 993.339C493.533 993.627 492.873 994.059 492.321 994.635V1002.01C492.849 1002.54 493.497 1002.96 494.265 1003.27C495.057 1003.59 495.897 1003.74 496.785 1003.74C498.321 1003.74 499.617 1003.23 500.673 1002.19C501.729 1001.14 502.257 999.843 502.257 998.307C502.257 996.771 501.717 995.487 500.637 994.455C499.581 993.399 498.297 992.871 496.785 992.871ZM516.251 1007.99C514.235 1007.99 512.591 1007.46 511.319 1006.41C510.047 1005.33 509.411 1003.93 509.411 1002.23C509.411 1000.45 510.095 999.063 511.463 998.055C512.831 997.047 514.715 996.543 517.115 996.543C517.883 996.543 518.651 996.603 519.419 996.723C520.187 996.843 520.943 997.023 521.687 997.263V995.931C521.687 994.851 521.351 994.035 520.679 993.483C520.007 992.931 519.023 992.655 517.727 992.655C516.935 992.655 516.071 992.787 515.135 993.051C514.223 993.291 513.179 993.675 512.003 994.203L510.203 990.567C511.667 989.895 513.083 989.391 514.451 989.055C515.843 988.719 517.211 988.551 518.555 988.551C521.075 988.551 523.031 989.163 524.423 990.387C525.839 991.587 526.547 993.291 526.547 995.499V1007.67H521.687V1006.37C520.895 1006.92 520.055 1007.33 519.167 1007.59C518.303 1007.86 517.331 1007.99 516.251 1007.99ZM514.127 1002.12C514.127 1002.84 514.439 1003.42 515.063 1003.85C515.687 1004.26 516.515 1004.46 517.547 1004.46C518.363 1004.46 519.107 1004.37 519.779 1004.17C520.475 1003.96 521.111 1003.66 521.687 1003.27V1000.47C521.087 1000.23 520.451 1000.06 519.779 999.963C519.131 999.843 518.447 999.783 517.727 999.783C516.599 999.783 515.711 999.999 515.063 1000.43C514.439 1000.84 514.127 1001.4 514.127 1002.12ZM535.212 981.387V1007.67H530.28V982.467L535.212 981.387ZM560.315 1007.67V1006.12C559.571 1006.72 558.743 1007.17 557.831 1007.49C556.919 1007.77 555.971 1007.92 554.987 1007.92C553.667 1007.92 552.419 1007.67 551.243 1007.16C550.091 1006.66 549.083 1005.97 548.219 1005.11C547.355 1004.25 546.671 1003.23 546.167 1002.05C545.687 1000.87 545.447 999.615 545.447 998.271C545.447 996.927 545.699 995.667 546.203 994.491C546.707 993.315 547.391 992.295 548.255 991.431C549.119 990.567 550.139 989.895 551.315 989.415C552.515 988.911 553.787 988.659 555.131 988.659C556.043 988.659 556.931 988.791 557.795 989.055C558.683 989.295 559.499 989.655 560.243 990.135V982.467L565.175 981.387V1007.67H560.315ZM550.307 998.271C550.307 999.783 550.835 1001.07 551.891 1002.12C552.947 1003.18 554.243 1003.71 555.779 1003.71C556.691 1003.71 557.519 1003.55 558.263 1003.24C559.031 1002.93 559.691 1002.48 560.243 1001.91V994.599C559.715 994.047 559.055 993.615 558.263 993.303C557.495 992.991 556.667 992.835 555.779 992.835C554.219 992.835 552.911 993.363 551.855 994.419C550.823 995.451 550.307 996.735 550.307 998.271ZM585.869 1005.33C584.717 1006.26 583.529 1006.95 582.305 1007.38C581.105 1007.81 579.761 1008.03 578.273 1008.03C576.857 1008.03 575.525 1007.77 574.277 1007.27C573.053 1006.77 571.985 1006.08 571.073 1005.22C570.185 1004.35 569.477 1003.33 568.949 1002.16C568.445 1000.96 568.193 999.675 568.193 998.307C568.193 996.963 568.433 995.703 568.913 994.527C569.417 993.327 570.101 992.295 570.965 991.431C571.829 990.543 572.849 989.847 574.025 989.343C575.225 988.839 576.497 988.587 577.841 988.587C579.161 988.587 580.385 988.851 581.513 989.379C582.665 989.883 583.649 990.579 584.465 991.467C585.305 992.355 585.953 993.423 586.409 994.671C586.889 995.895 587.129 997.227 587.129 998.667V999.963H573.161C573.497 1001.14 574.145 1002.09 575.105 1002.81C576.065 1003.53 577.193 1003.89 578.489 1003.89C579.305 1003.89 580.073 1003.75 580.793 1003.49C581.513 1003.23 582.125 1002.85 582.629 1002.37L585.869 1005.33ZM577.733 992.655C576.605 992.655 575.633 993.003 574.817 993.699C574.001 994.371 573.437 995.283 573.125 996.435H582.305C581.993 995.331 581.417 994.431 580.577 993.735C579.761 993.015 578.813 992.655 577.733 992.655ZM595.557 1003.67L598.545 999.927C600.009 1001.2 601.413 1002.13 602.757 1002.73C604.125 1003.31 605.565 1003.6 607.077 1003.6C608.637 1003.6 609.885 1003.31 610.821 1002.73C611.757 1002.16 612.225 1001.39 612.225 1000.43C612.225 999.567 611.901 998.895 611.253 998.415C610.629 997.935 609.573 997.575 608.085 997.335L603.081 996.471C600.921 996.111 599.277 995.355 598.149 994.203C597.045 993.051 596.493 991.563 596.493 989.739C596.493 987.387 597.381 985.527 599.157 984.159C600.957 982.791 603.381 982.107 606.429 982.107C608.253 982.107 610.089 982.419 611.937 983.043C613.809 983.667 615.441 984.531 616.833 985.635L614.025 989.523C612.681 988.491 611.361 987.735 610.065 987.255C608.769 986.751 607.437 986.499 606.069 986.499C604.677 986.499 603.561 986.763 602.721 987.291C601.881 987.795 601.461 988.479 601.461 989.343C601.461 990.111 601.737 990.711 602.289 991.143C602.841 991.575 603.765 991.887 605.061 992.079L609.813 992.871C612.309 993.279 614.181 994.083 615.429 995.283C616.701 996.459 617.337 998.019 617.337 999.963C617.337 1002.41 616.365 1004.37 614.421 1005.83C612.501 1007.29 609.933 1008.03 606.717 1008.03C604.701 1008.03 602.709 1007.64 600.741 1006.87C598.797 1006.11 597.069 1005.04 595.557 1003.67ZM621.992 1002.37V993.051H618.14V988.911H621.992V984.123L626.924 983.007V988.911H632.252V993.051H626.924V1001.37C626.924 1002.25 627.116 1002.88 627.5 1003.24C627.884 1003.6 628.556 1003.78 629.516 1003.78C629.972 1003.78 630.404 1003.75 630.812 1003.71C631.22 1003.63 631.664 1003.51 632.144 1003.35V1007.38C631.616 1007.55 630.98 1007.68 630.236 1007.77C629.492 1007.89 628.856 1007.95 628.328 1007.95C626.24 1007.95 624.656 1007.49 623.576 1006.55C622.52 1005.59 621.992 1004.2 621.992 1002.37ZM634.694 1007.67V988.911H639.626V990.963C640.226 990.147 640.946 989.535 641.786 989.127C642.65 988.695 643.598 988.479 644.63 988.479C645.11 988.503 645.506 988.551 645.818 988.623C646.154 988.671 646.442 988.767 646.682 988.911V993.231C646.322 993.063 645.926 992.943 645.494 992.871C645.062 992.775 644.618 992.727 644.162 992.727C643.202 992.727 642.314 992.967 641.498 993.447C640.706 993.927 640.082 994.623 639.626 995.535V1007.67H634.694ZM665.252 1005.33C664.1 1006.26 662.912 1006.95 661.688 1007.38C660.488 1007.81 659.144 1008.03 657.656 1008.03C656.24 1008.03 654.908 1007.77 653.66 1007.27C652.436 1006.77 651.368 1006.08 650.456 1005.22C649.568 1004.35 648.86 1003.33 648.332 1002.16C647.828 1000.96 647.576 999.675 647.576 998.307C647.576 996.963 647.816 995.703 648.296 994.527C648.8 993.327 649.484 992.295 650.348 991.431C651.212 990.543 652.232 989.847 653.408 989.343C654.608 988.839 655.88 988.587 657.224 988.587C658.544 988.587 659.768 988.851 660.896 989.379C662.048 989.883 663.032 990.579 663.848 991.467C664.688 992.355 665.336 993.423 665.792 994.671C666.272 995.895 666.512 997.227 666.512 998.667V999.963H652.544C652.88 1001.14 653.528 1002.09 654.488 1002.81C655.448 1003.53 656.576 1003.89 657.872 1003.89C658.688 1003.89 659.456 1003.75 660.176 1003.49C660.896 1003.23 661.508 1002.85 662.012 1002.37L665.252 1005.33ZM657.116 992.655C655.988 992.655 655.016 993.003 654.2 993.699C653.384 994.371 652.82 995.283 652.508 996.435H661.688C661.376 995.331 660.8 994.431 659.96 993.735C659.144 993.015 658.196 992.655 657.116 992.655ZM675.404 1007.99C673.388 1007.99 671.744 1007.46 670.472 1006.41C669.2 1005.33 668.564 1003.93 668.564 1002.23C668.564 1000.45 669.248 999.063 670.616 998.055C671.984 997.047 673.868 996.543 676.268 996.543C677.036 996.543 677.804 996.603 678.572 996.723C679.34 996.843 680.096 997.023 680.84 997.263V995.931C680.84 994.851 680.504 994.035 679.832 993.483C679.16 992.931 678.176 992.655 676.88 992.655C676.088 992.655 675.224 992.787 674.288 993.051C673.376 993.291 672.332 993.675 671.156 994.203L669.356 990.567C670.82 989.895 672.236 989.391 673.604 989.055C674.996 988.719 676.364 988.551 677.708 988.551C680.228 988.551 682.184 989.163 683.576 990.387C684.992 991.587 685.7 993.291 685.7 995.499V1007.67H680.84V1006.37C680.048 1006.92 679.208 1007.33 678.32 1007.59C677.456 1007.86 676.484 1007.99 675.404 1007.99ZM673.28 1002.12C673.28 1002.84 673.592 1003.42 674.216 1003.85C674.84 1004.26 675.668 1004.46 676.7 1004.46C677.516 1004.46 678.26 1004.37 678.932 1004.17C679.628 1003.96 680.264 1003.66 680.84 1003.27V1000.47C680.24 1000.23 679.604 1000.06 678.932 999.963C678.284 999.843 677.6 999.783 676.88 999.783C675.752 999.783 674.864 999.999 674.216 1000.43C673.592 1000.84 673.28 1001.4 673.28 1002.12ZM689.432 1007.67V988.911H694.364V990.315C695.036 989.739 695.78 989.307 696.596 989.019C697.412 988.707 698.3 988.551 699.26 988.551C700.46 988.551 701.54 988.803 702.5 989.307C703.484 989.787 704.288 990.471 704.912 991.359C705.656 990.447 706.556 989.751 707.612 989.271C708.668 988.791 709.832 988.551 711.104 988.551C713.192 988.551 714.908 989.247 716.252 990.639C717.596 992.031 718.268 993.819 718.268 996.003V1007.67H713.336V996.723C713.336 995.547 713.012 994.599 712.364 993.879C711.74 993.159 710.888 992.799 709.808 992.799C709.064 992.799 708.38 992.967 707.756 993.303C707.156 993.615 706.64 994.071 706.208 994.671C706.232 994.887 706.256 995.103 706.28 995.319C706.304 995.535 706.316 995.763 706.316 996.003V1007.67H701.384V996.723C701.384 995.547 701.06 994.599 700.412 993.879C699.788 993.159 698.936 992.799 697.856 992.799C697.112 992.799 696.452 992.943 695.876 993.231C695.3 993.519 694.796 993.939 694.364 994.491V1007.67H689.432ZM724.505 986.679C723.737 986.679 723.077 986.403 722.525 985.851C721.973 985.299 721.697 984.639 721.697 983.871C721.697 983.103 721.973 982.443 722.525 981.891C723.077 981.339 723.737 981.063 724.505 981.063C725.273 981.063 725.933 981.339 726.485 981.891C727.037 982.443 727.313 983.103 727.313 983.871C727.313 984.639 727.037 985.299 726.485 985.851C725.933 986.403 725.273 986.679 724.505 986.679ZM726.989 988.911V1007.67H722.057V988.911H726.989ZM730.846 1007.67V988.911H735.778V990.387C736.498 989.787 737.29 989.331 738.154 989.019C739.042 988.707 740.002 988.551 741.034 988.551C743.194 988.551 744.97 989.247 746.362 990.639C747.754 992.031 748.45 993.819 748.45 996.003V1007.67H743.518V996.723C743.518 995.547 743.158 994.599 742.438 993.879C741.742 993.159 740.806 992.799 739.63 992.799C738.814 992.799 738.07 992.967 737.398 993.303C736.75 993.615 736.21 994.071 735.778 994.671V1007.67H730.846ZM760.826 1007.77C759.506 1007.77 758.258 1007.52 757.082 1007.02C755.93 1006.51 754.922 1005.83 754.058 1004.97C753.218 1004.1 752.546 1003.09 752.042 1001.94C751.562 1000.77 751.322 999.507 751.322 998.163C751.322 996.843 751.574 995.607 752.078 994.455C752.582 993.279 753.266 992.259 754.13 991.395C754.994 990.531 756.014 989.859 757.19 989.379C758.366 988.875 759.626 988.623 760.97 988.623C761.906 988.623 762.794 988.755 763.634 989.019C764.498 989.283 765.302 989.655 766.046 990.135V988.911H770.906V1007.67C770.906 1010.14 770.102 1012.05 768.494 1013.39C766.91 1014.73 764.618 1015.41 761.618 1015.41C760.178 1015.41 758.786 1015.26 757.442 1014.97C756.122 1014.69 754.91 1014.27 753.806 1013.71L755.534 1009.86C756.566 1010.37 757.574 1010.74 758.558 1010.98C759.542 1011.24 760.526 1011.37 761.51 1011.37C762.974 1011.37 764.078 1011.05 764.822 1010.4C765.59 1009.78 765.974 1008.85 765.974 1007.63V1006.08C765.23 1006.63 764.414 1007.05 763.526 1007.34C762.662 1007.63 761.762 1007.77 760.826 1007.77ZM756.182 998.163C756.182 999.675 756.698 1000.96 757.73 1002.01C758.786 1003.07 760.07 1003.6 761.582 1003.6C762.47 1003.6 763.286 1003.45 764.03 1003.17C764.774 1002.85 765.422 1002.43 765.974 1001.91V994.527C765.446 993.999 764.798 993.591 764.03 993.303C763.262 992.991 762.458 992.835 761.618 992.835C760.106 992.835 758.822 993.351 757.766 994.383C756.71 995.415 756.182 996.675 756.182 998.163ZM436.46 1055.67V1054.12C435.716 1054.72 434.888 1055.17 433.976 1055.49C433.064 1055.77 432.116 1055.92 431.132 1055.92C429.812 1055.92 428.564 1055.67 427.388 1055.16C426.236 1054.66 425.228 1053.97 424.364 1053.11C423.5 1052.25 422.816 1051.23 422.312 1050.05C421.832 1048.87 421.592 1047.61 421.592 1046.27C421.592 1044.93 421.844 1043.67 422.348 1042.49C422.852 1041.31 423.536 1040.29 424.4 1039.43C425.264 1038.57 426.284 1037.89 427.46 1037.41C428.66 1036.91 429.932 1036.66 431.276 1036.66C432.188 1036.66 433.076 1036.79 433.94 1037.05C434.828 1037.29 435.644 1037.65 436.388 1038.13V1030.47L441.32 1029.39V1055.67H436.46ZM426.452 1046.27C426.452 1047.78 426.98 1049.07 428.036 1050.12C429.092 1051.18 430.388 1051.71 431.924 1051.71C432.836 1051.71 433.664 1051.55 434.408 1051.24C435.176 1050.93 435.836 1050.48 436.388 1049.91V1042.6C435.86 1042.05 435.2 1041.61 434.408 1041.3C433.64 1040.99 432.812 1040.83 431.924 1040.83C430.364 1040.83 429.056 1041.36 428 1042.42C426.968 1043.45 426.452 1044.73 426.452 1046.27ZM462.014 1053.33C460.862 1054.26 459.674 1054.95 458.45 1055.38C457.25 1055.81 455.906 1056.03 454.418 1056.03C453.002 1056.03 451.67 1055.77 450.422 1055.27C449.198 1054.77 448.13 1054.08 447.218 1053.22C446.33 1052.35 445.622 1051.33 445.094 1050.16C444.59 1048.96 444.338 1047.67 444.338 1046.31C444.338 1044.96 444.578 1043.7 445.058 1042.53C445.562 1041.33 446.246 1040.29 447.11 1039.43C447.974 1038.54 448.994 1037.85 450.17 1037.34C451.37 1036.84 452.642 1036.59 453.986 1036.59C455.306 1036.59 456.53 1036.85 457.658 1037.38C458.81 1037.88 459.794 1038.58 460.61 1039.47C461.45 1040.35 462.098 1041.42 462.554 1042.67C463.034 1043.89 463.274 1045.23 463.274 1046.67V1047.96H449.306C449.642 1049.14 450.29 1050.09 451.25 1050.81C452.21 1051.53 453.338 1051.89 454.634 1051.89C455.45 1051.89 456.218 1051.75 456.938 1051.49C457.658 1051.23 458.27 1050.85 458.774 1050.37L462.014 1053.33ZM453.878 1040.65C452.75 1040.65 451.778 1041 450.962 1041.7C450.146 1042.37 449.582 1043.28 449.27 1044.43H458.45C458.138 1043.33 457.562 1042.43 456.722 1041.73C455.906 1041.01 454.958 1040.65 453.878 1040.65ZM492.798 1045.87C492.798 1047.39 492.546 1048.78 492.042 1050.05C491.538 1051.3 490.83 1052.37 489.918 1053.25C489.03 1054.14 487.938 1054.83 486.642 1055.31C485.37 1055.79 483.954 1056.03 482.394 1056.03C479.898 1056.03 477.762 1055.39 475.986 1054.12C474.21 1052.85 472.95 1051.02 472.206 1048.65L477.03 1046.81C477.558 1048.32 478.266 1049.45 479.154 1050.19C480.042 1050.94 481.134 1051.31 482.43 1051.31C483.966 1051.31 485.202 1050.79 486.138 1049.76C487.098 1048.73 487.578 1047.39 487.578 1045.73V1030.47H492.798V1045.87ZM495.771 1046.31C495.771 1044.94 496.023 1043.67 496.527 1042.49C497.055 1041.29 497.763 1040.26 498.651 1039.39C499.563 1038.51 500.631 1037.81 501.855 1037.31C503.079 1036.8 504.387 1036.55 505.779 1036.55C507.171 1036.55 508.479 1036.8 509.703 1037.31C510.927 1037.81 511.983 1038.51 512.871 1039.39C513.783 1040.26 514.491 1041.29 514.995 1042.49C515.523 1043.67 515.787 1044.94 515.787 1046.31C515.787 1047.67 515.523 1048.96 514.995 1050.16C514.491 1051.33 513.783 1052.35 512.871 1053.22C511.983 1054.08 510.927 1054.77 509.703 1055.27C508.479 1055.77 507.171 1056.03 505.779 1056.03C504.387 1056.03 503.079 1055.77 501.855 1055.27C500.631 1054.77 499.563 1054.08 498.651 1053.22C497.763 1052.35 497.055 1051.33 496.527 1050.16C496.023 1048.96 495.771 1047.67 495.771 1046.31ZM505.779 1051.74C507.219 1051.74 508.443 1051.21 509.451 1050.16C510.459 1049.1 510.963 1047.82 510.963 1046.31C510.963 1044.77 510.459 1043.47 509.451 1042.42C508.443 1041.36 507.219 1040.83 505.779 1040.83C504.339 1040.83 503.115 1041.36 502.107 1042.42C501.099 1043.47 500.595 1044.77 500.595 1046.31C500.595 1047.82 501.099 1049.1 502.107 1050.16C503.115 1051.21 504.339 1051.74 505.779 1051.74ZM527.6 1055.77C526.28 1055.77 525.032 1055.52 523.856 1055.02C522.704 1054.51 521.696 1053.83 520.832 1052.97C519.992 1052.1 519.32 1051.09 518.816 1049.94C518.336 1048.77 518.096 1047.51 518.096 1046.16C518.096 1044.84 518.348 1043.61 518.852 1042.45C519.356 1041.28 520.04 1040.26 520.904 1039.39C521.768 1038.53 522.788 1037.86 523.964 1037.38C525.14 1036.87 526.4 1036.62 527.744 1036.62C528.68 1036.62 529.568 1036.75 530.408 1037.02C531.272 1037.28 532.076 1037.65 532.82 1038.13V1036.91H537.68V1055.67C537.68 1058.14 536.876 1060.05 535.268 1061.39C533.684 1062.73 531.392 1063.41 528.392 1063.41C526.952 1063.41 525.56 1063.26 524.216 1062.97C522.896 1062.69 521.684 1062.27 520.58 1061.71L522.308 1057.86C523.34 1058.37 524.348 1058.74 525.332 1058.98C526.316 1059.24 527.3 1059.37 528.284 1059.37C529.748 1059.37 530.852 1059.05 531.596 1058.4C532.364 1057.78 532.748 1056.85 532.748 1055.63V1054.08C532.004 1054.63 531.188 1055.05 530.3 1055.34C529.436 1055.63 528.536 1055.77 527.6 1055.77ZM522.956 1046.16C522.956 1047.67 523.472 1048.96 524.504 1050.01C525.56 1051.07 526.844 1051.6 528.356 1051.6C529.244 1051.6 530.06 1051.45 530.804 1051.17C531.548 1050.85 532.196 1050.43 532.748 1049.91V1042.53C532.22 1042 531.572 1041.59 530.804 1041.3C530.036 1040.99 529.232 1040.83 528.392 1040.83C526.88 1040.83 525.596 1041.35 524.54 1042.38C523.484 1043.41 522.956 1044.67 522.956 1046.16ZM540.701 1046.31C540.701 1044.94 540.953 1043.67 541.457 1042.49C541.985 1041.29 542.693 1040.26 543.581 1039.39C544.493 1038.51 545.561 1037.81 546.785 1037.31C548.009 1036.8 549.317 1036.55 550.709 1036.55C552.101 1036.55 553.409 1036.8 554.633 1037.31C555.857 1037.81 556.913 1038.51 557.801 1039.39C558.713 1040.26 559.421 1041.29 559.925 1042.49C560.453 1043.67 560.717 1044.94 560.717 1046.31C560.717 1047.67 560.453 1048.96 559.925 1050.16C559.421 1051.33 558.713 1052.35 557.801 1053.22C556.913 1054.08 555.857 1054.77 554.633 1055.27C553.409 1055.77 552.101 1056.03 550.709 1056.03C549.317 1056.03 548.009 1055.77 546.785 1055.27C545.561 1054.77 544.493 1054.08 543.581 1053.22C542.693 1052.35 541.985 1051.33 541.457 1050.16C540.953 1048.96 540.701 1047.67 540.701 1046.31ZM550.709 1051.74C552.149 1051.74 553.373 1051.21 554.381 1050.16C555.389 1049.1 555.893 1047.82 555.893 1046.31C555.893 1044.77 555.389 1043.47 554.381 1042.42C553.373 1041.36 552.149 1040.83 550.709 1040.83C549.269 1040.83 548.045 1041.36 547.037 1042.42C546.029 1043.47 545.525 1044.77 545.525 1046.31C545.525 1047.82 546.029 1049.1 547.037 1050.16C548.045 1051.21 549.269 1051.74 550.709 1051.74ZM562.165 1053.43L564.613 1050.16C565.717 1050.88 566.761 1051.42 567.745 1051.78C568.729 1052.11 569.713 1052.28 570.697 1052.28C571.801 1052.28 572.677 1052.1 573.325 1051.74C573.997 1051.38 574.333 1050.9 574.333 1050.3C574.333 1049.82 574.141 1049.44 573.757 1049.15C573.397 1048.86 572.809 1048.66 571.993 1048.54L568.393 1048C566.545 1047.71 565.129 1047.11 564.145 1046.2C563.185 1045.29 562.705 1044.07 562.705 1042.56C562.705 1040.76 563.413 1039.32 564.829 1038.24C566.245 1037.16 568.141 1036.62 570.517 1036.62C571.885 1036.62 573.217 1036.83 574.513 1037.23C575.809 1037.62 577.045 1038.19 578.221 1038.96L575.845 1042.13C574.813 1041.53 573.829 1041.09 572.893 1040.8C571.957 1040.49 571.009 1040.33 570.049 1040.33C569.161 1040.33 568.441 1040.5 567.889 1040.83C567.361 1041.17 567.097 1041.61 567.097 1042.17C567.097 1042.67 567.289 1043.07 567.673 1043.35C568.081 1043.62 568.741 1043.81 569.653 1043.93L573.253 1044.47C575.077 1044.73 576.481 1045.33 577.465 1046.27C578.473 1047.21 578.977 1048.39 578.977 1049.83C578.977 1050.72 578.761 1051.55 578.329 1052.32C577.921 1053.06 577.357 1053.71 576.637 1054.26C575.917 1054.81 575.053 1055.25 574.045 1055.56C573.037 1055.87 571.945 1056.03 570.769 1056.03C569.065 1056.03 567.469 1055.81 565.981 1055.38C564.493 1054.92 563.221 1054.27 562.165 1053.43Z" fill="white"/>
<g filter="url(#filter0_i_307_2)">
<path d="M575.288 833.482C545.918 833.482 529.747 826.963 516.182 810.963C502.616 794.607 495.833 771.319 495.833 741.096V645.867C495.833 615.644 502.616 592.533 516.182 576.533C529.747 560.178 549.449 552 575.288 552C601.127 552 620.829 560.178 634.394 576.533C647.96 592.533 654.743 615.644 654.743 645.867V655.704H604.357V642.133C604.357 617.6 595.152 605.333 576.741 605.333C558.331 605.333 549.126 617.6 549.126 642.133V745.363C549.126 769.541 558.331 781.63 576.741 781.63C595.152 781.63 604.357 754.726 604.357 730.548V722.37H577.71V685.333H654.743V726.281C654.743 756.504 647.96 794.607 634.394 810.963C620.829 826.963 599.749 833.482 575.288 833.482Z" fill="white"/>
<path d="M575.288 833.482C545.918 833.482 529.747 826.963 516.182 810.963C502.616 794.607 495.833 771.319 495.833 741.096V645.867C495.833 615.644 502.616 592.533 516.182 576.533C529.747 560.178 549.449 552 575.288 552C601.127 552 620.829 560.178 634.394 576.533C647.96 592.533 654.743 615.644 654.743 645.867V655.704H604.357V642.133C604.357 617.6 595.152 605.333 576.741 605.333C558.331 605.333 549.126 617.6 549.126 642.133V745.363C549.126 769.541 558.331 781.63 576.741 781.63C595.152 781.63 604.357 754.726 604.357 730.548V722.37H577.71V685.333H654.743V726.281C654.743 756.504 647.96 794.607 634.394 810.963C620.829 826.963 599.749 833.482 575.288 833.482Z" fill="white"/>
<path d="M345.833 365.333L491.177 389.778V443.111L399.126 427.555V517.333H472.282V570.667H399.126V667.333L491.177 653.111V708.148L345.833 738.667V365.333Z" fill="white"/>
</g>
<defs>
<filter id="filter0_i_307_2" x="345.833" y="365.333" width="310.909" height="470.148" filterUnits="userSpaceOnUse" color-interpolation-filters="sRGB">
<feFlood flood-opacity="0" result="BackgroundImageFix"/>
<feBlend mode="normal" in="SourceGraphic" in2="BackgroundImageFix" result="shape"/>
<feColorMatrix in="SourceAlpha" type="matrix" values="0 0 0 0 0 0 0 0 0 0 0 0 0 0 0 0 0 0 127 0" result="hardAlpha"/>
<feOffset dx="2" dy="2"/>
<feGaussianBlur stdDeviation="1.5"/>
<feComposite in2="hardAlpha" operator="arithmetic" k2="-1" k3="1"/>
<feColorMatrix type="matrix" values="0 0 0 0 0 0 0 0 0 0 0 0 0 0 0 0 0 0 0.45 0"/>
<feBlend mode="normal" in2="shape" result="effect1_innerShadow_307_2"/>
</filter>
<linearGradient id="paint0_linear_307_2" x1="500" y1="1.14441e-05" x2="34.32" y2="1234.94" gradientUnits="userSpaceOnUse">
<stop stop-color="#FF4646" stop-opacity="0"/>
<stop offset="0.955958" stop-color="#C4C4C4"/>
</linearGradient>
</defs>
</svg>
