<svg width="1080" height="480" viewBox="0 0 1080 480" fill="none" xmlns="http://www.w3.org/2000/svg">
<rect width="1080" height="480" fill="white"/>
<path d="M875.245 63.9342C867.555 60.2618 857.022 58.1778 845.967 58.1333C845.857 58.1333 845.761 58.1333 845.665 58.1333C834.734 58.1333 824.243 60.1411 816.511 63.7245L812.364 65.6433C796.489 73.0009 796.283 84.8886 811.911 92.3669C884.336 127.001 924.242 172.614 924.242 220.8C924.242 268.993 884.349 314.606 811.911 349.233C796.242 356.718 796.476 368.637 812.419 375.988L816.58 377.907C824.298 381.472 834.762 383.467 845.665 383.467C845.789 383.467 845.912 383.467 846.022 383.467C857.049 383.422 867.568 381.332 875.245 377.672C963.75 335.401 1012.5 279.692 1012.5 220.8C1012.5 161.914 963.75 106.205 875.245 63.9342Z" fill="#EEEEEE"/>
<path d="M800.308 136.864C792.604 133.185 782.044 131.101 770.976 131.063C770.893 131.063 770.797 131.063 770.715 131.063C759.743 131.063 749.224 133.09 741.492 136.692L739.474 137.632C723.668 144.996 723.489 156.859 739.089 164.324C770.825 179.49 788.292 199.473 788.292 220.58C788.292 241.693 770.825 261.675 739.103 276.835C723.489 284.301 723.654 296.163 739.474 303.527L741.492 304.467C749.21 308.07 759.743 310.096 770.715 310.096C770.797 310.096 770.893 310.096 770.976 310.096C782.044 310.065 792.604 307.974 800.308 304.302C847.548 281.74 873.571 252.011 873.571 220.58C873.571 189.154 847.561 159.426 800.308 136.864Z" fill="#EEEEEE"/>
<path d="M144.063 220.8C144.063 172.62 184.087 127.007 256.765 92.3669C272.471 84.8886 272.251 72.9818 256.269 65.6243L252.094 63.7055C244.337 60.1347 233.839 58.1333 222.885 58.1333C222.775 58.1333 222.651 58.1333 222.541 58.1333C211.464 58.1778 200.896 60.2618 193.194 63.9342C104.397 106.205 55.5 161.914 55.5 220.8C55.5 279.692 104.397 335.401 193.208 377.666C200.924 381.338 211.491 383.422 222.569 383.467C222.679 383.467 222.789 383.467 222.899 383.467C233.852 383.467 244.379 381.465 252.122 377.882L256.296 375.957C272.251 368.599 272.471 356.705 256.779 349.227C184.087 314.599 144.063 268.986 144.063 220.8Z" fill="#EEEEEE"/>
<path d="M328.385 137.588L326.346 136.648C318.603 133.07 308.076 131.063 297.123 131.063C297.013 131.063 296.903 131.063 296.792 131.063C285.715 131.101 275.148 133.191 267.432 136.864C220.051 159.419 193.956 189.148 193.956 220.58C193.956 252.011 220.051 281.746 267.446 304.302C275.148 307.968 285.729 310.052 296.806 310.096C296.916 310.096 297.027 310.096 297.123 310.096C308.076 310.096 318.603 308.095 326.346 304.512L328.385 303.571C344.339 296.214 344.546 284.32 328.867 276.835C297.04 261.669 279.501 241.699 279.501 220.58C279.501 199.473 297.027 179.49 328.867 164.324C344.56 156.84 344.353 144.939 328.385 137.588Z" fill="#EEEEEE"/>
<rect width="1080" height="480" fill="url(#paint0_linear_313_16)"/>
<path d="M243.879 396.467V371.267H256.515C257.739 371.267 258.867 371.471 259.899 371.879C260.955 372.263 261.855 372.803 262.599 373.499C263.343 374.195 263.919 375.035 264.327 376.019C264.759 376.979 264.975 378.035 264.975 379.187C264.975 380.315 264.759 381.359 264.327 382.319C263.919 383.255 263.331 384.071 262.563 384.767C261.819 385.463 260.931 386.003 259.899 386.387C258.867 386.771 257.739 386.963 256.515 386.963H249.099V396.467H243.879ZM255.939 375.767H249.099V382.643H255.939C257.067 382.643 257.967 382.331 258.639 381.707C259.335 381.083 259.683 380.255 259.683 379.223C259.683 378.191 259.335 377.363 258.639 376.739C257.967 376.091 257.067 375.767 255.939 375.767ZM272.991 370.187V396.467H268.059V371.267L272.991 370.187ZM282.788 396.791C280.772 396.791 279.128 396.263 277.856 395.207C276.584 394.127 275.948 392.735 275.948 391.031C275.948 389.255 276.632 387.863 278 386.855C279.368 385.847 281.252 385.343 283.652 385.343C284.42 385.343 285.188 385.403 285.956 385.523C286.724 385.643 287.48 385.823 288.224 386.063V384.731C288.224 383.651 287.888 382.835 287.216 382.283C286.544 381.731 285.56 381.455 284.264 381.455C283.472 381.455 282.608 381.587 281.672 381.851C280.76 382.091 279.716 382.475 278.54 383.003L276.74 379.367C278.204 378.695 279.62 378.191 280.988 377.855C282.38 377.519 283.748 377.351 285.092 377.351C287.612 377.351 289.568 377.963 290.96 379.187C292.376 380.387 293.084 382.091 293.084 384.299V396.467H288.224V395.171C287.432 395.723 286.592 396.131 285.704 396.395C284.84 396.659 283.868 396.791 282.788 396.791ZM280.664 390.923C280.664 391.643 280.976 392.219 281.6 392.651C282.224 393.059 283.052 393.263 284.084 393.263C284.9 393.263 285.644 393.167 286.316 392.975C287.012 392.759 287.648 392.459 288.224 392.075V389.267C287.624 389.027 286.988 388.859 286.316 388.763C285.668 388.643 284.984 388.583 284.264 388.583C283.136 388.583 282.248 388.799 281.6 389.231C280.976 389.639 280.664 390.203 280.664 390.923ZM298.67 391.175V381.851H294.818V377.711H298.67V372.923L303.602 371.807V377.711H308.93V381.851H303.602V390.167C303.602 391.055 303.794 391.679 304.178 392.039C304.562 392.399 305.234 392.579 306.194 392.579C306.65 392.579 307.082 392.555 307.49 392.507C307.898 392.435 308.342 392.315 308.822 392.147V396.179C308.294 396.347 307.658 396.479 306.914 396.575C306.17 396.695 305.534 396.755 305.006 396.755C302.918 396.755 301.334 396.287 300.254 395.351C299.198 394.391 298.67 392.999 298.67 391.175ZM317.311 396.791C315.295 396.791 313.651 396.263 312.379 395.207C311.107 394.127 310.471 392.735 310.471 391.031C310.471 389.255 311.155 387.863 312.523 386.855C313.891 385.847 315.775 385.343 318.175 385.343C318.943 385.343 319.711 385.403 320.479 385.523C321.247 385.643 322.003 385.823 322.747 386.063V384.731C322.747 383.651 322.411 382.835 321.739 382.283C321.067 381.731 320.083 381.455 318.787 381.455C317.995 381.455 317.131 381.587 316.195 381.851C315.283 382.091 314.239 382.475 313.063 383.003L311.263 379.367C312.727 378.695 314.143 378.191 315.511 377.855C316.903 377.519 318.271 377.351 319.615 377.351C322.135 377.351 324.091 377.963 325.483 379.187C326.899 380.387 327.607 382.091 327.607 384.299V396.467H322.747V395.171C321.955 395.723 321.115 396.131 320.227 396.395C319.363 396.659 318.391 396.791 317.311 396.791ZM315.187 390.923C315.187 391.643 315.499 392.219 316.123 392.651C316.747 393.059 317.575 393.263 318.607 393.263C319.423 393.263 320.167 393.167 320.839 392.975C321.535 392.759 322.171 392.459 322.747 392.075V389.267C322.147 389.027 321.511 388.859 320.839 388.763C320.191 388.643 319.507 388.583 318.787 388.583C317.659 388.583 316.771 388.799 316.123 389.231C315.499 389.639 315.187 390.203 315.187 390.923ZM329.341 377.711H333.517V375.911C333.517 373.823 334.129 372.215 335.353 371.087C336.577 369.959 338.341 369.395 340.645 369.395C341.149 369.395 341.665 369.431 342.193 369.503C342.721 369.551 343.177 369.623 343.561 369.719V373.859C343.105 373.763 342.697 373.691 342.337 373.643C342.001 373.595 341.641 373.571 341.257 373.571C340.321 373.571 339.613 373.775 339.133 374.183C338.677 374.591 338.449 375.203 338.449 376.019V377.711H343.561V381.851H338.449V396.467H333.517V381.851H329.341V377.711ZM344.75 387.107C344.75 385.739 345.002 384.467 345.506 383.291C346.034 382.091 346.742 381.059 347.63 380.195C348.542 379.307 349.61 378.611 350.834 378.107C352.058 377.603 353.366 377.351 354.758 377.351C356.15 377.351 357.458 377.603 358.682 378.107C359.906 378.611 360.962 379.307 361.85 380.195C362.762 381.059 363.47 382.091 363.974 383.291C364.502 384.467 364.766 385.739 364.766 387.107C364.766 388.475 364.502 389.759 363.974 390.959C363.47 392.135 362.762 393.155 361.85 394.019C360.962 394.883 359.906 395.567 358.682 396.071C357.458 396.575 356.15 396.827 354.758 396.827C353.366 396.827 352.058 396.575 350.834 396.071C349.61 395.567 348.542 394.883 347.63 394.019C346.742 393.155 346.034 392.135 345.506 390.959C345.002 389.759 344.75 388.475 344.75 387.107ZM354.758 392.543C356.198 392.543 357.422 392.015 358.43 390.959C359.438 389.903 359.942 388.619 359.942 387.107C359.942 385.571 359.438 384.275 358.43 383.219C357.422 382.163 356.198 381.635 354.758 381.635C353.318 381.635 352.094 382.163 351.086 383.219C350.078 384.275 349.574 385.571 349.574 387.107C349.574 388.619 350.078 389.903 351.086 390.959C352.094 392.015 353.318 392.543 354.758 392.543ZM367.797 396.467V377.711H372.729V379.763C373.329 378.947 374.049 378.335 374.889 377.927C375.753 377.495 376.701 377.279 377.733 377.279C378.213 377.303 378.609 377.351 378.921 377.423C379.257 377.471 379.545 377.567 379.785 377.711V382.031C379.425 381.863 379.029 381.743 378.597 381.671C378.165 381.575 377.721 381.527 377.265 381.527C376.305 381.527 375.417 381.767 374.601 382.247C373.809 382.727 373.185 383.423 372.729 384.335V396.467H367.797ZM382.457 396.467V377.711H387.389V379.115C388.061 378.539 388.805 378.107 389.621 377.819C390.437 377.507 391.325 377.351 392.285 377.351C393.485 377.351 394.565 377.603 395.525 378.107C396.509 378.587 397.313 379.271 397.937 380.159C398.681 379.247 399.581 378.551 400.637 378.071C401.693 377.591 402.857 377.351 404.129 377.351C406.217 377.351 407.933 378.047 409.277 379.439C410.621 380.831 411.293 382.619 411.293 384.803V396.467H406.361V385.523C406.361 384.347 406.037 383.399 405.389 382.679C404.765 381.959 403.913 381.599 402.833 381.599C402.089 381.599 401.405 381.767 400.781 382.103C400.181 382.415 399.665 382.871 399.233 383.471C399.257 383.687 399.281 383.903 399.305 384.119C399.329 384.335 399.341 384.563 399.341 384.803V396.467H394.409V385.523C394.409 384.347 394.085 383.399 393.437 382.679C392.813 381.959 391.961 381.599 390.881 381.599C390.137 381.599 389.477 381.743 388.901 382.031C388.325 382.319 387.821 382.739 387.389 383.291V396.467H382.457ZM421.022 396.791C419.006 396.791 417.362 396.263 416.09 395.207C414.818 394.127 414.182 392.735 414.182 391.031C414.182 389.255 414.866 387.863 416.234 386.855C417.602 385.847 419.486 385.343 421.886 385.343C422.654 385.343 423.422 385.403 424.19 385.523C424.958 385.643 425.714 385.823 426.458 386.063V384.731C426.458 383.651 426.122 382.835 425.45 382.283C424.778 381.731 423.794 381.455 422.498 381.455C421.706 381.455 420.842 381.587 419.906 381.851C418.994 382.091 417.95 382.475 416.774 383.003L414.974 379.367C416.438 378.695 417.854 378.191 419.222 377.855C420.614 377.519 421.982 377.351 423.326 377.351C425.846 377.351 427.802 377.963 429.194 379.187C430.61 380.387 431.318 382.091 431.318 384.299V396.467H426.458V395.171C425.666 395.723 424.826 396.131 423.938 396.395C423.074 396.659 422.102 396.791 421.022 396.791ZM418.898 390.923C418.898 391.643 419.21 392.219 419.834 392.651C420.458 393.059 421.286 393.263 422.318 393.263C423.134 393.263 423.878 393.167 424.55 392.975C425.246 392.759 425.882 392.459 426.458 392.075V389.267C425.858 389.027 425.222 388.859 424.55 388.763C423.902 388.643 423.218 388.583 422.498 388.583C421.37 388.583 420.482 388.799 419.834 389.231C419.21 389.639 418.898 390.203 418.898 390.923ZM467.637 383.903C467.637 385.751 467.313 387.479 466.665 389.087C466.041 390.671 465.165 392.039 464.037 393.191C462.933 394.319 461.601 395.219 460.041 395.891C458.481 396.539 456.801 396.863 455.001 396.863C453.129 396.863 451.377 396.527 449.745 395.855C448.113 395.183 446.697 394.271 445.497 393.119C444.321 391.943 443.385 390.563 442.689 388.979C441.993 387.395 441.645 385.691 441.645 383.867C441.645 382.043 441.981 380.339 442.653 378.755C443.349 377.171 444.285 375.803 445.461 374.651C446.661 373.475 448.077 372.551 449.709 371.879C451.341 371.207 453.081 370.871 454.929 370.871C457.017 370.871 458.985 371.291 460.833 372.131C462.681 372.971 464.205 374.123 465.405 375.587L461.769 378.935C460.881 377.879 459.849 377.075 458.673 376.523C457.521 375.947 456.273 375.659 454.929 375.659C453.801 375.659 452.745 375.875 451.761 376.307C450.801 376.715 449.961 377.291 449.241 378.035C448.545 378.755 447.993 379.619 447.585 380.627C447.201 381.611 447.009 382.691 447.009 383.867C447.009 385.043 447.213 386.135 447.621 387.143C448.029 388.151 448.593 389.027 449.313 389.771C450.033 390.491 450.885 391.067 451.869 391.499C452.877 391.907 453.945 392.111 455.073 392.111C456.849 392.111 458.373 391.619 459.645 390.635C460.941 389.651 461.745 388.391 462.057 386.855H454.605V382.319H467.637V383.903ZM475.807 370.187V396.467H470.875V371.267L475.807 370.187ZM478.8 387.107C478.8 385.739 479.052 384.467 479.556 383.291C480.084 382.091 480.792 381.059 481.68 380.195C482.592 379.307 483.66 378.611 484.884 378.107C486.108 377.603 487.416 377.351 488.808 377.351C490.2 377.351 491.508 377.603 492.732 378.107C493.956 378.611 495.012 379.307 495.9 380.195C496.812 381.059 497.52 382.091 498.024 383.291C498.552 384.467 498.816 385.739 498.816 387.107C498.816 388.475 498.552 389.759 498.024 390.959C497.52 392.135 496.812 393.155 495.9 394.019C495.012 394.883 493.956 395.567 492.732 396.071C491.508 396.575 490.2 396.827 488.808 396.827C487.416 396.827 486.108 396.575 484.884 396.071C483.66 395.567 482.592 394.883 481.68 394.019C480.792 393.155 480.084 392.135 479.556 390.959C479.052 389.759 478.8 388.475 478.8 387.107ZM488.808 392.543C490.248 392.543 491.472 392.015 492.48 390.959C493.488 389.903 493.992 388.619 493.992 387.107C493.992 385.571 493.488 384.275 492.48 383.219C491.472 382.163 490.248 381.635 488.808 381.635C487.368 381.635 486.144 382.163 485.136 383.219C484.128 384.275 483.624 385.571 483.624 387.107C483.624 388.619 484.128 389.903 485.136 390.959C486.144 392.015 487.368 392.543 488.808 392.543ZM521.576 387.107C521.576 388.451 521.324 389.711 520.82 390.887C520.316 392.063 519.632 393.083 518.768 393.947C517.904 394.811 516.872 395.495 515.672 395.999C514.496 396.479 513.236 396.719 511.892 396.719C510.956 396.719 510.044 396.587 509.156 396.323C508.268 396.059 507.452 395.687 506.708 395.207V396.467H501.848V371.267L506.78 370.187V379.187C507.524 378.635 508.34 378.215 509.228 377.927C510.14 377.615 511.076 377.459 512.036 377.459C513.356 377.459 514.592 377.711 515.744 378.215C516.92 378.719 517.94 379.403 518.804 380.267C519.668 381.131 520.34 382.151 520.82 383.327C521.324 384.503 521.576 385.763 521.576 387.107ZM511.244 381.671C510.356 381.671 509.528 381.827 508.76 382.139C507.992 382.427 507.332 382.859 506.78 383.435V390.815C507.308 391.343 507.956 391.763 508.724 392.075C509.516 392.387 510.356 392.543 511.244 392.543C512.78 392.543 514.076 392.027 515.132 390.995C516.188 389.939 516.716 388.643 516.716 387.107C516.716 385.571 516.176 384.287 515.096 383.255C514.04 382.199 512.756 381.671 511.244 381.671ZM530.71 396.791C528.694 396.791 527.05 396.263 525.778 395.207C524.506 394.127 523.87 392.735 523.87 391.031C523.87 389.255 524.554 387.863 525.922 386.855C527.29 385.847 529.174 385.343 531.574 385.343C532.342 385.343 533.11 385.403 533.878 385.523C534.646 385.643 535.402 385.823 536.146 386.063V384.731C536.146 383.651 535.81 382.835 535.138 382.283C534.466 381.731 533.482 381.455 532.186 381.455C531.394 381.455 530.53 381.587 529.594 381.851C528.682 382.091 527.638 382.475 526.462 383.003L524.662 379.367C526.126 378.695 527.542 378.191 528.91 377.855C530.302 377.519 531.67 377.351 533.014 377.351C535.534 377.351 537.49 377.963 538.882 379.187C540.298 380.387 541.006 382.091 541.006 384.299V396.467H536.146V395.171C535.354 395.723 534.514 396.131 533.626 396.395C532.762 396.659 531.79 396.791 530.71 396.791ZM528.586 390.923C528.586 391.643 528.898 392.219 529.522 392.651C530.146 393.059 530.974 393.263 532.006 393.263C532.822 393.263 533.566 393.167 534.238 392.975C534.934 392.759 535.57 392.459 536.146 392.075V389.267C535.546 389.027 534.91 388.859 534.238 388.763C533.59 388.643 532.906 388.583 532.186 388.583C531.058 388.583 530.17 388.799 529.522 389.231C528.898 389.639 528.586 390.203 528.586 390.923ZM549.671 370.187V396.467H544.739V371.267L549.671 370.187ZM574.774 396.467V394.919C574.03 395.519 573.202 395.975 572.29 396.287C571.378 396.575 570.43 396.719 569.446 396.719C568.126 396.719 566.878 396.467 565.702 395.963C564.55 395.459 563.542 394.775 562.678 393.911C561.814 393.047 561.13 392.027 560.626 390.851C560.146 389.675 559.906 388.415 559.906 387.071C559.906 385.727 560.158 384.467 560.662 383.291C561.166 382.115 561.85 381.095 562.714 380.231C563.578 379.367 564.598 378.695 565.774 378.215C566.974 377.711 568.246 377.459 569.59 377.459C570.502 377.459 571.39 377.591 572.254 377.855C573.142 378.095 573.958 378.455 574.702 378.935V371.267L579.634 370.187V396.467H574.774ZM564.766 387.071C564.766 388.583 565.294 389.867 566.35 390.923C567.406 391.979 568.702 392.507 570.238 392.507C571.15 392.507 571.978 392.351 572.722 392.039C573.49 391.727 574.15 391.283 574.702 390.707V383.399C574.174 382.847 573.514 382.415 572.722 382.103C571.954 381.791 571.126 381.635 570.238 381.635C568.678 381.635 567.37 382.163 566.314 383.219C565.282 384.251 564.766 385.535 564.766 387.071ZM600.328 394.127C599.176 395.063 597.988 395.747 596.764 396.179C595.564 396.611 594.22 396.827 592.732 396.827C591.316 396.827 589.984 396.575 588.736 396.071C587.512 395.567 586.444 394.883 585.532 394.019C584.644 393.155 583.936 392.135 583.408 390.959C582.904 389.759 582.652 388.475 582.652 387.107C582.652 385.763 582.892 384.503 583.372 383.327C583.876 382.127 584.56 381.095 585.424 380.231C586.288 379.343 587.308 378.647 588.484 378.143C589.684 377.639 590.956 377.387 592.3 377.387C593.62 377.387 594.844 377.651 595.972 378.179C597.124 378.683 598.108 379.379 598.924 380.267C599.764 381.155 600.412 382.223 600.868 383.471C601.348 384.695 601.588 386.027 601.588 387.467V388.763H587.62C587.956 389.939 588.604 390.887 589.564 391.607C590.524 392.327 591.652 392.687 592.948 392.687C593.764 392.687 594.532 392.555 595.252 392.291C595.972 392.027 596.584 391.655 597.088 391.175L600.328 394.127ZM592.192 381.455C591.064 381.455 590.092 381.803 589.276 382.499C588.46 383.171 587.896 384.083 587.584 385.235H596.764C596.452 384.131 595.876 383.231 595.036 382.535C594.22 381.815 593.272 381.455 592.192 381.455ZM610.016 392.471L613.004 388.727C614.468 389.999 615.872 390.935 617.216 391.535C618.584 392.111 620.024 392.399 621.536 392.399C623.096 392.399 624.344 392.111 625.28 391.535C626.216 390.959 626.684 390.191 626.684 389.231C626.684 388.367 626.36 387.695 625.712 387.215C625.088 386.735 624.032 386.375 622.544 386.135L617.54 385.271C615.38 384.911 613.736 384.155 612.608 383.003C611.504 381.851 610.952 380.363 610.952 378.539C610.952 376.187 611.84 374.327 613.616 372.959C615.416 371.591 617.84 370.907 620.888 370.907C622.712 370.907 624.548 371.219 626.396 371.843C628.268 372.467 629.9 373.331 631.292 374.435L628.484 378.323C627.14 377.291 625.82 376.535 624.524 376.055C623.228 375.551 621.896 375.299 620.528 375.299C619.136 375.299 618.02 375.563 617.18 376.091C616.34 376.595 615.92 377.279 615.92 378.143C615.92 378.911 616.196 379.511 616.748 379.943C617.3 380.375 618.224 380.687 619.52 380.879L624.272 381.671C626.768 382.079 628.64 382.883 629.888 384.083C631.16 385.259 631.796 386.819 631.796 388.763C631.796 391.211 630.824 393.167 628.88 394.631C626.96 396.095 624.392 396.827 621.176 396.827C619.16 396.827 617.168 396.443 615.2 395.675C613.256 394.907 611.528 393.839 610.016 392.471ZM636.451 391.175V381.851H632.599V377.711H636.451V372.923L641.383 371.807V377.711H646.711V381.851H641.383V390.167C641.383 391.055 641.575 391.679 641.959 392.039C642.343 392.399 643.015 392.579 643.975 392.579C644.431 392.579 644.863 392.555 645.271 392.507C645.679 392.435 646.123 392.315 646.603 392.147V396.179C646.075 396.347 645.439 396.479 644.695 396.575C643.951 396.695 643.315 396.755 642.787 396.755C640.699 396.755 639.115 396.287 638.035 395.351C636.979 394.391 636.451 392.999 636.451 391.175ZM649.153 396.467V377.711H654.085V379.763C654.685 378.947 655.405 378.335 656.245 377.927C657.109 377.495 658.057 377.279 659.089 377.279C659.569 377.303 659.965 377.351 660.277 377.423C660.613 377.471 660.901 377.567 661.141 377.711V382.031C660.781 381.863 660.385 381.743 659.953 381.671C659.521 381.575 659.077 381.527 658.621 381.527C657.661 381.527 656.773 381.767 655.957 382.247C655.165 382.727 654.541 383.423 654.085 384.335V396.467H649.153ZM679.711 394.127C678.559 395.063 677.371 395.747 676.147 396.179C674.947 396.611 673.603 396.827 672.115 396.827C670.699 396.827 669.367 396.575 668.119 396.071C666.895 395.567 665.827 394.883 664.915 394.019C664.027 393.155 663.319 392.135 662.791 390.959C662.287 389.759 662.035 388.475 662.035 387.107C662.035 385.763 662.275 384.503 662.755 383.327C663.259 382.127 663.943 381.095 664.807 380.231C665.671 379.343 666.691 378.647 667.867 378.143C669.067 377.639 670.339 377.387 671.683 377.387C673.003 377.387 674.227 377.651 675.355 378.179C676.507 378.683 677.491 379.379 678.307 380.267C679.147 381.155 679.795 382.223 680.251 383.471C680.731 384.695 680.971 386.027 680.971 387.467V388.763H667.003C667.339 389.939 667.987 390.887 668.947 391.607C669.907 392.327 671.035 392.687 672.331 392.687C673.147 392.687 673.915 392.555 674.635 392.291C675.355 392.027 675.967 391.655 676.471 391.175L679.711 394.127ZM671.575 381.455C670.447 381.455 669.475 381.803 668.659 382.499C667.843 383.171 667.279 384.083 666.967 385.235H676.147C675.835 384.131 675.259 383.231 674.419 382.535C673.603 381.815 672.655 381.455 671.575 381.455ZM689.862 396.791C687.846 396.791 686.202 396.263 684.93 395.207C683.658 394.127 683.022 392.735 683.022 391.031C683.022 389.255 683.706 387.863 685.074 386.855C686.442 385.847 688.326 385.343 690.726 385.343C691.494 385.343 692.262 385.403 693.03 385.523C693.798 385.643 694.554 385.823 695.298 386.063V384.731C695.298 383.651 694.962 382.835 694.29 382.283C693.618 381.731 692.634 381.455 691.338 381.455C690.546 381.455 689.682 381.587 688.746 381.851C687.834 382.091 686.79 382.475 685.614 383.003L683.814 379.367C685.278 378.695 686.694 378.191 688.062 377.855C689.454 377.519 690.822 377.351 692.166 377.351C694.686 377.351 696.642 377.963 698.034 379.187C699.45 380.387 700.158 382.091 700.158 384.299V396.467H695.298V395.171C694.506 395.723 693.666 396.131 692.778 396.395C691.914 396.659 690.942 396.791 689.862 396.791ZM687.738 390.923C687.738 391.643 688.05 392.219 688.674 392.651C689.298 393.059 690.126 393.263 691.158 393.263C691.974 393.263 692.718 393.167 693.39 392.975C694.086 392.759 694.722 392.459 695.298 392.075V389.267C694.698 389.027 694.062 388.859 693.39 388.763C692.742 388.643 692.058 388.583 691.338 388.583C690.21 388.583 689.322 388.799 688.674 389.231C688.05 389.639 687.738 390.203 687.738 390.923ZM703.891 396.467V377.711H708.823V379.115C709.495 378.539 710.239 378.107 711.055 377.819C711.871 377.507 712.759 377.351 713.719 377.351C714.919 377.351 715.999 377.603 716.959 378.107C717.943 378.587 718.747 379.271 719.371 380.159C720.115 379.247 721.015 378.551 722.071 378.071C723.127 377.591 724.291 377.351 725.563 377.351C727.651 377.351 729.367 378.047 730.711 379.439C732.055 380.831 732.727 382.619 732.727 384.803V396.467H727.795V385.523C727.795 384.347 727.471 383.399 726.823 382.679C726.199 381.959 725.347 381.599 724.267 381.599C723.523 381.599 722.839 381.767 722.215 382.103C721.615 382.415 721.099 382.871 720.667 383.471C720.691 383.687 720.715 383.903 720.739 384.119C720.763 384.335 720.775 384.563 720.775 384.803V396.467H715.843V385.523C715.843 384.347 715.519 383.399 714.871 382.679C714.247 381.959 713.395 381.599 712.315 381.599C711.571 381.599 710.911 381.743 710.335 382.031C709.759 382.319 709.255 382.739 708.823 383.291V396.467H703.891ZM738.964 375.479C738.196 375.479 737.536 375.203 736.984 374.651C736.432 374.099 736.156 373.439 736.156 372.671C736.156 371.903 736.432 371.243 736.984 370.691C737.536 370.139 738.196 369.863 738.964 369.863C739.732 369.863 740.392 370.139 740.944 370.691C741.496 371.243 741.772 371.903 741.772 372.671C741.772 373.439 741.496 374.099 740.944 374.651C740.392 375.203 739.732 375.479 738.964 375.479ZM741.448 377.711V396.467H736.516V377.711H741.448ZM745.305 396.467V377.711H750.237V379.187C750.957 378.587 751.749 378.131 752.613 377.819C753.501 377.507 754.461 377.351 755.493 377.351C757.653 377.351 759.429 378.047 760.821 379.439C762.213 380.831 762.909 382.619 762.909 384.803V396.467H757.977V385.523C757.977 384.347 757.617 383.399 756.897 382.679C756.201 381.959 755.265 381.599 754.089 381.599C753.273 381.599 752.529 381.767 751.857 382.103C751.209 382.415 750.669 382.871 750.237 383.471V396.467H745.305ZM775.285 396.575C773.965 396.575 772.717 396.323 771.541 395.819C770.389 395.315 769.381 394.631 768.517 393.767C767.677 392.903 767.005 391.895 766.501 390.743C766.021 389.567 765.781 388.307 765.781 386.963C765.781 385.643 766.033 384.407 766.537 383.255C767.041 382.079 767.725 381.059 768.589 380.195C769.453 379.331 770.473 378.659 771.649 378.179C772.825 377.675 774.085 377.423 775.429 377.423C776.365 377.423 777.253 377.555 778.093 377.819C778.957 378.083 779.761 378.455 780.505 378.935V377.711H785.365V396.467C785.365 398.939 784.561 400.847 782.953 402.191C781.369 403.535 779.077 404.207 776.077 404.207C774.637 404.207 773.245 404.063 771.901 403.775C770.581 403.487 769.369 403.067 768.265 402.515L769.993 398.663C771.025 399.167 772.033 399.539 773.017 399.779C774.001 400.043 774.985 400.175 775.969 400.175C777.433 400.175 778.537 399.851 779.281 399.203C780.049 398.579 780.433 397.655 780.433 396.431V394.883C779.689 395.435 778.873 395.855 777.985 396.143C777.121 396.431 776.221 396.575 775.285 396.575ZM770.641 386.963C770.641 388.475 771.157 389.759 772.189 390.815C773.245 391.871 774.529 392.399 776.041 392.399C776.929 392.399 777.745 392.255 778.489 391.967C779.233 391.655 779.881 391.235 780.433 390.707V383.327C779.905 382.799 779.257 382.391 778.489 382.103C777.721 381.791 776.917 381.635 776.077 381.635C774.565 381.635 773.281 382.151 772.225 383.183C771.169 384.215 770.641 385.475 770.641 386.963ZM810.497 396.467V394.919C809.753 395.519 808.925 395.975 808.013 396.287C807.101 396.575 806.153 396.719 805.169 396.719C803.849 396.719 802.601 396.467 801.425 395.963C800.273 395.459 799.265 394.775 798.401 393.911C797.537 393.047 796.853 392.027 796.349 390.851C795.869 389.675 795.629 388.415 795.629 387.071C795.629 385.727 795.881 384.467 796.385 383.291C796.889 382.115 797.573 381.095 798.437 380.231C799.301 379.367 800.321 378.695 801.497 378.215C802.697 377.711 803.969 377.459 805.313 377.459C806.225 377.459 807.113 377.591 807.977 377.855C808.865 378.095 809.681 378.455 810.425 378.935V371.267L815.357 370.187V396.467H810.497ZM800.489 387.071C800.489 388.583 801.017 389.867 802.073 390.923C803.129 391.979 804.425 392.507 805.961 392.507C806.873 392.507 807.701 392.351 808.445 392.039C809.213 391.727 809.873 391.283 810.425 390.707V383.399C809.897 382.847 809.237 382.415 808.445 382.103C807.677 381.791 806.849 381.635 805.961 381.635C804.401 381.635 803.093 382.163 802.037 383.219C801.005 384.251 800.489 385.535 800.489 387.071ZM836.051 394.127C834.899 395.063 833.711 395.747 832.487 396.179C831.287 396.611 829.943 396.827 828.455 396.827C827.039 396.827 825.707 396.575 824.459 396.071C823.235 395.567 822.167 394.883 821.255 394.019C820.367 393.155 819.659 392.135 819.131 390.959C818.627 389.759 818.375 388.475 818.375 387.107C818.375 385.763 818.615 384.503 819.095 383.327C819.599 382.127 820.283 381.095 821.147 380.231C822.011 379.343 823.031 378.647 824.207 378.143C825.407 377.639 826.679 377.387 828.023 377.387C829.343 377.387 830.567 377.651 831.695 378.179C832.847 378.683 833.831 379.379 834.647 380.267C835.487 381.155 836.135 382.223 836.591 383.471C837.071 384.695 837.311 386.027 837.311 387.467V388.763H823.343C823.679 389.939 824.327 390.887 825.287 391.607C826.247 392.327 827.375 392.687 828.671 392.687C829.487 392.687 830.255 392.555 830.975 392.291C831.695 392.027 832.307 391.655 832.811 391.175L836.051 394.127ZM827.915 381.455C826.787 381.455 825.815 381.803 824.999 382.499C824.183 383.171 823.619 384.083 823.307 385.235H832.487C832.175 384.131 831.599 383.231 830.759 382.535C829.943 381.815 828.995 381.455 827.915 381.455ZM507.256 434.675C507.256 436.187 507.004 437.579 506.5 438.851C505.996 440.099 505.288 441.167 504.376 442.055C503.488 442.943 502.396 443.627 501.1 444.107C499.828 444.587 498.412 444.827 496.852 444.827C494.356 444.827 492.22 444.191 490.444 442.919C488.668 441.647 487.408 439.823 486.664 437.447L491.488 435.611C492.016 437.123 492.724 438.251 493.612 438.995C494.5 439.739 495.592 440.111 496.888 440.111C498.424 440.111 499.66 439.595 500.596 438.563C501.556 437.531 502.036 436.187 502.036 434.531V419.267H507.256V434.675ZM510.23 435.107C510.23 433.739 510.482 432.467 510.986 431.291C511.514 430.091 512.222 429.059 513.11 428.195C514.022 427.307 515.09 426.611 516.314 426.107C517.538 425.603 518.846 425.351 520.238 425.351C521.63 425.351 522.938 425.603 524.162 426.107C525.386 426.611 526.442 427.307 527.33 428.195C528.242 429.059 528.95 430.091 529.454 431.291C529.982 432.467 530.246 433.739 530.246 435.107C530.246 436.475 529.982 437.759 529.454 438.959C528.95 440.135 528.242 441.155 527.33 442.019C526.442 442.883 525.386 443.567 524.162 444.071C522.938 444.575 521.63 444.827 520.238 444.827C518.846 444.827 517.538 444.575 516.314 444.071C515.09 443.567 514.022 442.883 513.11 442.019C512.222 441.155 511.514 440.135 510.986 438.959C510.482 437.759 510.23 436.475 510.23 435.107ZM520.238 440.543C521.678 440.543 522.902 440.015 523.91 438.959C524.918 437.903 525.422 436.619 525.422 435.107C525.422 433.571 524.918 432.275 523.91 431.219C522.902 430.163 521.678 429.635 520.238 429.635C518.798 429.635 517.574 430.163 516.566 431.219C515.558 432.275 515.054 433.571 515.054 435.107C515.054 436.619 515.558 437.903 516.566 438.959C517.574 440.015 518.798 440.543 520.238 440.543ZM542.058 444.575C540.738 444.575 539.49 444.323 538.314 443.819C537.162 443.315 536.154 442.631 535.29 441.767C534.45 440.903 533.778 439.895 533.274 438.743C532.794 437.567 532.554 436.307 532.554 434.963C532.554 433.643 532.806 432.407 533.31 431.255C533.814 430.079 534.498 429.059 535.362 428.195C536.226 427.331 537.246 426.659 538.422 426.179C539.598 425.675 540.858 425.423 542.202 425.423C543.138 425.423 544.026 425.555 544.866 425.819C545.73 426.083 546.534 426.455 547.278 426.935V425.711H552.138V444.467C552.138 446.939 551.334 448.847 549.726 450.191C548.142 451.535 545.85 452.207 542.85 452.207C541.41 452.207 540.018 452.063 538.674 451.775C537.354 451.487 536.142 451.067 535.038 450.515L536.766 446.663C537.798 447.167 538.806 447.539 539.79 447.779C540.774 448.043 541.758 448.175 542.742 448.175C544.206 448.175 545.31 447.851 546.054 447.203C546.822 446.579 547.206 445.655 547.206 444.431V442.883C546.462 443.435 545.646 443.855 544.758 444.143C543.894 444.431 542.994 444.575 542.058 444.575ZM537.414 434.963C537.414 436.475 537.93 437.759 538.962 438.815C540.018 439.871 541.302 440.399 542.814 440.399C543.702 440.399 544.518 440.255 545.262 439.967C546.006 439.655 546.654 439.235 547.206 438.707V431.327C546.678 430.799 546.03 430.391 545.262 430.103C544.494 429.791 543.69 429.635 542.85 429.635C541.338 429.635 540.054 430.151 538.998 431.183C537.942 432.215 537.414 433.475 537.414 434.963ZM555.16 435.107C555.16 433.739 555.412 432.467 555.916 431.291C556.444 430.091 557.152 429.059 558.04 428.195C558.952 427.307 560.02 426.611 561.244 426.107C562.468 425.603 563.776 425.351 565.168 425.351C566.56 425.351 567.868 425.603 569.092 426.107C570.316 426.611 571.372 427.307 572.26 428.195C573.172 429.059 573.88 430.091 574.384 431.291C574.912 432.467 575.176 433.739 575.176 435.107C575.176 436.475 574.912 437.759 574.384 438.959C573.88 440.135 573.172 441.155 572.26 442.019C571.372 442.883 570.316 443.567 569.092 444.071C567.868 444.575 566.56 444.827 565.168 444.827C563.776 444.827 562.468 444.575 561.244 444.071C560.02 443.567 558.952 442.883 558.04 442.019C557.152 441.155 556.444 440.135 555.916 438.959C555.412 437.759 555.16 436.475 555.16 435.107ZM565.168 440.543C566.608 440.543 567.832 440.015 568.84 438.959C569.848 437.903 570.352 436.619 570.352 435.107C570.352 433.571 569.848 432.275 568.84 431.219C567.832 430.163 566.608 429.635 565.168 429.635C563.728 429.635 562.504 430.163 561.496 431.219C560.488 432.275 559.984 433.571 559.984 435.107C559.984 436.619 560.488 437.903 561.496 438.959C562.504 440.015 563.728 440.543 565.168 440.543ZM576.623 442.235L579.071 438.959C580.175 439.679 581.219 440.219 582.203 440.579C583.187 440.915 584.171 441.083 585.155 441.083C586.259 441.083 587.135 440.903 587.783 440.543C588.455 440.183 588.791 439.703 588.791 439.103C588.791 438.623 588.599 438.239 588.215 437.951C587.855 437.663 587.267 437.459 586.451 437.339L582.851 436.799C581.003 436.511 579.587 435.911 578.603 434.999C577.643 434.087 577.163 432.875 577.163 431.363C577.163 429.563 577.871 428.123 579.287 427.043C580.703 425.963 582.599 425.423 584.975 425.423C586.343 425.423 587.675 425.627 588.971 426.035C590.267 426.419 591.503 426.995 592.679 427.763L590.303 430.931C589.271 430.331 588.287 429.887 587.351 429.599C586.415 429.287 585.467 429.131 584.507 429.131C583.619 429.131 582.899 429.299 582.347 429.635C581.819 429.971 581.555 430.415 581.555 430.967C581.555 431.471 581.747 431.867 582.131 432.155C582.539 432.419 583.199 432.611 584.111 432.731L587.711 433.271C589.535 433.535 590.939 434.135 591.923 435.071C592.931 436.007 593.435 437.195 593.435 438.635C593.435 439.523 593.219 440.351 592.787 441.119C592.379 441.863 591.815 442.511 591.095 443.063C590.375 443.615 589.511 444.047 588.503 444.359C587.495 444.671 586.403 444.827 585.227 444.827C583.523 444.827 581.927 444.611 580.439 444.179C578.951 443.723 577.679 443.075 576.623 442.235Z" fill="white"/>
<g filter="url(#filter0_i_313_16)">
<path d="M621.311 333.393C589.591 333.393 572.127 330.785 557.476 324.385C542.825 317.843 535.5 308.527 535.5 296.439V258.347C535.5 246.258 542.825 237.013 557.476 230.613C572.127 224.071 593.405 220.8 621.311 220.8C649.217 220.8 670.495 224.071 685.146 230.613C699.797 237.013 707.122 246.258 707.122 258.347V262.282H652.705V256.853C652.705 247.04 642.764 242.133 622.881 242.133C602.998 242.133 593.056 247.04 593.056 256.853V298.145C593.056 307.816 602.998 312.652 622.881 312.652C642.764 312.652 652.705 301.89 652.705 292.219V288.948H623.927V274.133H707.122V290.513C707.122 302.602 699.797 317.843 685.146 324.385C670.495 330.785 647.729 333.393 621.311 333.393Z" fill="white"/>
<path d="M621.311 333.393C589.591 333.393 572.127 330.785 557.476 324.385C542.825 317.843 535.5 308.527 535.5 296.439V258.347C535.5 246.258 542.825 237.013 557.476 230.613C572.127 224.071 593.405 220.8 621.311 220.8C649.217 220.8 670.495 224.071 685.146 230.613C699.797 237.013 707.122 246.258 707.122 258.347V262.282H652.705V256.853C652.705 247.04 642.764 242.133 622.881 242.133C602.998 242.133 593.056 247.04 593.056 256.853V298.145C593.056 307.816 602.998 312.652 622.881 312.652C642.764 312.652 652.705 301.89 652.705 292.219V288.948H623.927V274.133H707.122V290.513C707.122 302.602 699.797 317.843 685.146 324.385C670.495 330.785 647.729 333.393 621.311 333.393Z" fill="white"/>
<path d="M373.5 146.133L530.471 155.911V177.244L431.056 171.022V206.933H510.065V228.267H431.056V266.933L530.471 261.244V283.259L373.5 295.467V146.133Z" fill="white"/>
</g>
<defs>
<filter id="filter0_i_313_16" x="373.5" y="146.133" width="335.622" height="189.259" filterUnits="userSpaceOnUse" color-interpolation-filters="sRGB">
<feFlood flood-opacity="0" result="BackgroundImageFix"/>
<feBlend mode="normal" in="SourceGraphic" in2="BackgroundImageFix" result="shape"/>
<feColorMatrix in="SourceAlpha" type="matrix" values="0 0 0 0 0 0 0 0 0 0 0 0 0 0 0 0 0 0 127 0" result="hardAlpha"/>
<feOffset dx="2" dy="2"/>
<feGaussianBlur stdDeviation="1.5"/>
<feComposite in2="hardAlpha" operator="arithmetic" k2="-1" k3="1"/>
<feColorMatrix type="matrix" values="0 0 0 0 0 0 0 0 0 0 0 0 0 0 0 0 0 0 0.45 0"/>
<feBlend mode="normal" in2="shape" result="effect1_innerShadow_313_16"/>
</filter>
<linearGradient id="paint0_linear_313_16" x1="540" y1="4.57764e-06" x2="462.708" y2="553.423" gradientUnits="userSpaceOnUse">
<stop stop-color="#FF4646" stop-opacity="0"/>
<stop offset="0.955958" stop-color="#C4C4C4"/>
</linearGradient>
</defs>
</svg>
